<svg xmlns="http://www.w3.org/2000/svg" xmlns:xlink="http://www.w3.org/1999/xlink" width="5040" zoomAndPan="magnify" viewBox="0 0 3780 2520.000003" height="3360" preserveAspectRatio="xMidYMid meet" version="1.0"><defs><clipPath id="b5a306aa01"><path d="M 0.75 0 L 3779.25 0 L 3779.25 2519 L 0.75 2519 Z M 0.75 0 " clip-rule="nonzero"/></clipPath><clipPath id="74d31adc8c"><path d="M 1192.039062 755.699219 L 2587.984375 755.699219 L 2587.984375 1763.300781 L 1192.039062 1763.300781 Z M 1192.039062 755.699219 " clip-rule="nonzero"/></clipPath></defs><g clip-path="url(#b5a306aa01)"><path fill="#ffffff" d="M 0.75 0 L 3779.25 0 L 3779.25 2519 L 0.75 2519 Z M 0.75 0 " fill-opacity="1" fill-rule="nonzero"/><path fill="#ffffff" d="M 0.75 0 L 3779.25 0 L 3779.25 2519 L 0.75 2519 Z M 0.75 0 " fill-opacity="1" fill-rule="nonzero"/></g><g clip-path="url(#74d31adc8c)"><path fill="#de2910" d="M 2587.601562 1608.285156 C 2587.601562 1693.890625 2518.191406 1763.300781 2432.582031 1763.300781 L 1347.445312 1763.300781 C 1261.835938 1763.300781 1192.425781 1693.890625 1192.425781 1608.285156 L 1192.425781 910.714844 C 1192.425781 825.109375 1261.835938 755.699219 1347.445312 755.699219 L 2432.582031 755.699219 C 2518.191406 755.699219 2587.601562 825.109375 2587.601562 910.714844 Z M 2587.601562 1608.285156 " fill-opacity="1" fill-rule="nonzero"/></g><path fill="#ffde02" d="M 1624 909.824219 L 1652.523438 923.621094 L 1675.351562 901.6875 L 1671.046875 933.078125 L 1698.953125 948.035156 L 1667.792969 953.617188 L 1662.210938 984.773438 L 1647.253906 956.871094 L 1615.863281 961.171875 L 1637.796875 938.347656 Z M 1804.792969 1023.800781 L 1790.996094 1052.285156 L 1812.929688 1075.148438 L 1781.578125 1070.808594 L 1766.617188 1098.75 L 1761.035156 1067.550781 L 1729.839844 1061.972656 L 1757.78125 1047.011719 L 1753.441406 1015.660156 L 1776.304688 1037.59375 Z M 1767.703125 1170.25 L 1778.089844 1200.167969 L 1809.75 1200.828125 L 1784.523438 1219.933594 L 1793.707031 1250.277344 L 1767.703125 1232.179688 L 1741.699219 1250.277344 L 1750.84375 1219.933594 L 1725.613281 1200.828125 L 1757.277344 1200.167969 Z M 1624 1297.363281 L 1652.523438 1311.160156 L 1675.351562 1289.222656 L 1671.046875 1320.613281 L 1698.953125 1335.574219 L 1667.792969 1341.15625 L 1662.210938 1372.3125 L 1647.253906 1344.410156 L 1615.863281 1348.710938 L 1637.796875 1325.886719 Z M 1463.710938 986.324219 L 1499.714844 1089.835938 L 1609.234375 1092.082031 L 1521.917969 1158.273438 L 1553.660156 1263.144531 L 1463.710938 1200.554688 L 1373.761719 1263.144531 L 1405.5 1158.273438 L 1318.1875 1092.082031 L 1427.707031 1089.835938 Z M 1463.710938 986.324219 " fill-opacity="1" fill-rule="nonzero"/></svg>