<svg xmlns="http://www.w3.org/2000/svg" xmlns:xlink="http://www.w3.org/1999/xlink" width="5040" zoomAndPan="magnify" viewBox="0 0 3780 2520.000003" height="3360" preserveAspectRatio="xMidYMid meet" version="1.0"><defs><clipPath id="e53b9b8e51"><path d="M 0.75 0 L 3779.25 0 L 3779.25 2519 L 0.75 2519 Z M 0.75 0 " clip-rule="nonzero"/></clipPath><clipPath id="e3c15baea1"><path d="M 1192.039062 755.699219 L 2587.984375 755.699219 L 2587.984375 1763.300781 L 1192.039062 1763.300781 Z M 1192.039062 755.699219 " clip-rule="nonzero"/></clipPath></defs><g clip-path="url(#e53b9b8e51)"><path fill="#ffffff" d="M 0.75 0 L 3779.25 0 L 3779.25 2519 L 0.75 2519 Z M 0.75 0 " fill-opacity="1" fill-rule="nonzero"/><path fill="#ffffff" d="M 0.75 0 L 3779.25 0 L 3779.25 2519 L 0.75 2519 Z M 0.75 0 " fill-opacity="1" fill-rule="nonzero"/></g><g clip-path="url(#e3c15baea1)"><path fill="#eeeeee" d="M 2587.601562 1608.285156 C 2587.601562 1693.890625 2518.191406 1763.300781 2432.582031 1763.300781 L 1347.445312 1763.300781 C 1261.835938 1763.300781 1192.425781 1693.890625 1192.425781 1608.285156 L 1192.425781 910.714844 C 1192.425781 825.109375 1261.835938 755.699219 1347.445312 755.699219 L 2432.582031 755.699219 C 2518.191406 755.699219 2587.601562 825.109375 2587.601562 910.714844 Z M 2587.601562 1608.285156 " fill-opacity="1" fill-rule="nonzero"/></g><path fill="#ed1b2f" d="M 2161.296875 1259.5 C 2161.296875 1263.941406 2161.1875 1268.375 2160.96875 1272.8125 C 2160.753906 1277.246094 2160.425781 1281.671875 2159.992188 1286.089844 C 2159.554688 1290.507812 2159.011719 1294.914062 2158.359375 1299.304688 C 2157.710938 1303.695312 2156.949219 1308.070312 2156.085938 1312.421875 C 2155.21875 1316.777344 2154.246094 1321.109375 2153.167969 1325.414062 C 2152.085938 1329.722656 2150.902344 1334 2149.617188 1338.246094 C 2148.328125 1342.496094 2146.933594 1346.710938 2145.4375 1350.890625 C 2143.941406 1355.070312 2142.34375 1359.210938 2140.644531 1363.3125 C 2138.949219 1367.414062 2137.148438 1371.472656 2135.25 1375.484375 C 2133.351562 1379.5 2131.355469 1383.464844 2129.265625 1387.378906 C 2127.171875 1391.292969 2124.984375 1395.15625 2122.699219 1398.964844 C 2120.417969 1402.773438 2118.042969 1406.523438 2115.578125 1410.214844 C 2113.109375 1413.90625 2110.554688 1417.535156 2107.910156 1421.097656 C 2105.265625 1424.664062 2102.535156 1428.164062 2099.71875 1431.597656 C 2096.902344 1435.027344 2094.003906 1438.390625 2091.019531 1441.679688 C 2088.039062 1444.96875 2084.980469 1448.183594 2081.839844 1451.320312 C 2078.699219 1454.460938 2075.484375 1457.523438 2072.195312 1460.503906 C 2068.90625 1463.484375 2065.546875 1466.382812 2062.113281 1469.199219 C 2058.683594 1472.015625 2055.183594 1474.746094 2051.617188 1477.390625 C 2048.050781 1480.035156 2044.421875 1482.59375 2040.730469 1485.058594 C 2037.039062 1487.523438 2033.289062 1489.898438 2029.480469 1492.183594 C 2025.671875 1494.464844 2021.8125 1496.652344 2017.894531 1498.746094 C 2013.980469 1500.835938 2010.015625 1502.832031 2006 1504.730469 C 2001.988281 1506.628906 1997.929688 1508.429688 1993.828125 1510.128906 C 1989.726562 1511.828125 1985.585938 1513.421875 1981.40625 1514.917969 C 1977.226562 1516.414062 1973.011719 1517.808594 1968.761719 1519.097656 C 1964.515625 1520.382812 1960.234375 1521.570312 1955.929688 1522.648438 C 1951.621094 1523.726562 1947.292969 1524.699219 1942.9375 1525.566406 C 1938.582031 1526.429688 1934.210938 1527.1875 1929.820312 1527.839844 C 1925.425781 1528.492188 1921.023438 1529.035156 1916.601562 1529.472656 C 1912.183594 1529.90625 1907.757812 1530.234375 1903.324219 1530.449219 C 1898.890625 1530.667969 1894.453125 1530.777344 1890.011719 1530.777344 C 1885.574219 1530.777344 1881.136719 1530.667969 1876.703125 1530.449219 C 1872.265625 1530.234375 1867.839844 1529.90625 1863.421875 1529.472656 C 1859.003906 1529.035156 1854.597656 1528.492188 1850.207031 1527.839844 C 1845.816406 1527.1875 1841.441406 1526.429688 1837.089844 1525.566406 C 1832.734375 1524.699219 1828.402344 1523.726562 1824.097656 1522.648438 C 1819.789062 1521.566406 1815.511719 1520.382812 1811.261719 1519.097656 C 1807.015625 1517.808594 1802.800781 1516.414062 1798.621094 1514.917969 C 1794.441406 1513.421875 1790.300781 1511.828125 1786.195312 1510.128906 C 1782.09375 1508.429688 1778.039062 1506.628906 1774.023438 1504.730469 C 1770.011719 1502.832031 1766.046875 1500.835938 1762.128906 1498.746094 C 1758.214844 1496.652344 1754.351562 1494.464844 1750.546875 1492.183594 C 1746.738281 1489.898438 1742.988281 1487.523438 1739.296875 1485.058594 C 1735.605469 1482.59375 1731.976562 1480.035156 1728.410156 1477.390625 C 1724.84375 1474.746094 1721.34375 1472.015625 1717.914062 1469.199219 C 1714.480469 1466.382812 1711.121094 1463.484375 1707.828125 1460.503906 C 1704.539062 1457.523438 1701.324219 1454.460938 1698.1875 1451.320312 C 1695.046875 1448.183594 1691.988281 1444.96875 1689.003906 1441.679688 C 1686.023438 1438.390625 1683.125 1435.027344 1680.308594 1431.597656 C 1677.492188 1428.164062 1674.761719 1424.664062 1672.117188 1421.101562 C 1669.472656 1417.535156 1666.914062 1413.90625 1664.449219 1410.214844 C 1661.980469 1406.523438 1659.609375 1402.773438 1657.324219 1398.964844 C 1655.042969 1395.15625 1652.855469 1391.292969 1650.761719 1387.378906 C 1648.667969 1383.464844 1646.671875 1379.5 1644.773438 1375.484375 C 1642.878906 1371.472656 1641.078125 1367.414062 1639.378906 1363.3125 C 1637.679688 1359.210938 1636.082031 1355.070312 1634.585938 1350.890625 C 1633.089844 1346.710938 1631.699219 1342.496094 1630.410156 1338.246094 C 1629.121094 1334 1627.9375 1329.722656 1626.859375 1325.414062 C 1625.78125 1321.109375 1624.808594 1316.777344 1623.941406 1312.421875 C 1623.074219 1308.070312 1622.316406 1303.695312 1621.664062 1299.304688 C 1621.015625 1294.914062 1620.46875 1290.507812 1620.035156 1286.089844 C 1619.601562 1281.671875 1619.273438 1277.246094 1619.054688 1272.8125 C 1618.839844 1268.375 1618.730469 1263.941406 1618.730469 1259.5 C 1618.730469 1255.058594 1618.839844 1250.625 1619.054688 1246.1875 C 1619.273438 1241.753906 1619.601562 1237.328125 1620.035156 1232.910156 C 1620.46875 1228.492188 1621.015625 1224.085938 1621.664062 1219.695312 C 1622.316406 1215.304688 1623.074219 1210.929688 1623.941406 1206.578125 C 1624.808594 1202.222656 1625.78125 1197.890625 1626.859375 1193.585938 C 1627.9375 1189.277344 1629.121094 1185 1630.410156 1180.753906 C 1631.699219 1176.503906 1633.089844 1172.289062 1634.585938 1168.109375 C 1636.082031 1163.929688 1637.679688 1159.789062 1639.378906 1155.6875 C 1641.078125 1151.585938 1642.878906 1147.527344 1644.773438 1143.515625 C 1646.671875 1139.5 1648.667969 1135.535156 1650.761719 1131.621094 C 1652.855469 1127.707031 1655.042969 1123.84375 1657.324219 1120.035156 C 1659.609375 1116.226562 1661.980469 1112.476562 1664.449219 1108.785156 C 1666.914062 1105.09375 1669.472656 1101.464844 1672.117188 1097.902344 C 1674.761719 1094.335938 1677.492188 1090.835938 1680.308594 1087.402344 C 1683.125 1083.972656 1686.023438 1080.609375 1689.003906 1077.320312 C 1691.988281 1074.03125 1695.046875 1070.816406 1698.1875 1067.679688 C 1701.324219 1064.539062 1704.539062 1061.480469 1707.828125 1058.496094 C 1711.121094 1055.515625 1714.480469 1052.617188 1717.914062 1049.800781 C 1721.34375 1046.984375 1724.84375 1044.253906 1728.410156 1041.609375 C 1731.976562 1038.964844 1735.605469 1036.40625 1739.296875 1033.941406 C 1742.988281 1031.476562 1746.738281 1029.101562 1750.546875 1026.816406 C 1754.351562 1024.535156 1758.214844 1022.347656 1762.128906 1020.253906 C 1766.046875 1018.164062 1770.011719 1016.167969 1774.023438 1014.269531 C 1778.039062 1012.371094 1782.09375 1010.570312 1786.195312 1008.871094 C 1790.300781 1007.175781 1794.441406 1005.578125 1798.621094 1004.082031 C 1802.800781 1002.585938 1807.015625 1001.191406 1811.261719 999.90625 C 1815.511719 998.617188 1819.789062 997.433594 1824.097656 996.351562 C 1828.402344 995.273438 1832.734375 994.300781 1837.089844 993.4375 C 1841.441406 992.570312 1845.816406 991.8125 1850.207031 991.160156 C 1854.597656 990.507812 1859.003906 989.964844 1863.421875 989.53125 C 1867.839844 989.09375 1872.265625 988.769531 1876.703125 988.550781 C 1881.136719 988.332031 1885.574219 988.222656 1890.011719 988.222656 C 1894.453125 988.222656 1898.890625 988.332031 1903.324219 988.550781 C 1907.757812 988.769531 1912.183594 989.09375 1916.601562 989.53125 C 1921.023438 989.964844 1925.425781 990.507812 1929.820312 991.160156 C 1934.210938 991.8125 1938.582031 992.570312 1942.9375 993.4375 C 1947.292969 994.300781 1951.621094 995.273438 1955.929688 996.351562 C 1960.234375 997.433594 1964.515625 998.617188 1968.761719 999.90625 C 1973.011719 1001.191406 1977.226562 1002.585938 1981.40625 1004.082031 C 1985.585938 1005.578125 1989.726562 1007.175781 1993.828125 1008.871094 C 1997.929688 1010.570312 2001.988281 1012.371094 2006 1014.269531 C 2010.015625 1016.167969 2013.980469 1018.164062 2017.894531 1020.253906 C 2021.8125 1022.347656 2025.671875 1024.535156 2029.480469 1026.816406 C 2033.289062 1029.101562 2037.039062 1031.476562 2040.730469 1033.941406 C 2044.421875 1036.40625 2048.050781 1038.964844 2051.617188 1041.609375 C 2055.183594 1044.253906 2058.679688 1046.984375 2062.113281 1049.800781 C 2065.546875 1052.617188 2068.90625 1055.515625 2072.195312 1058.496094 C 2075.484375 1061.480469 2078.699219 1064.539062 2081.839844 1067.679688 C 2084.980469 1070.816406 2088.039062 1074.03125 2091.019531 1077.320312 C 2094.003906 1080.609375 2096.902344 1083.972656 2099.71875 1087.402344 C 2102.535156 1090.835938 2105.265625 1094.335938 2107.910156 1097.902344 C 2110.554688 1101.464844 2113.109375 1105.09375 2115.578125 1108.785156 C 2118.042969 1112.476562 2120.417969 1116.226562 2122.699219 1120.035156 C 2124.984375 1123.84375 2127.171875 1127.707031 2129.265625 1131.621094 C 2131.355469 1135.535156 2133.351562 1139.5 2135.25 1143.515625 C 2137.148438 1147.527344 2138.949219 1151.585938 2140.644531 1155.6875 C 2142.34375 1159.789062 2143.941406 1163.929688 2145.4375 1168.109375 C 2146.933594 1172.289062 2148.328125 1176.503906 2149.617188 1180.753906 C 2150.902344 1185 2152.085938 1189.277344 2153.167969 1193.585938 C 2154.246094 1197.890625 2155.21875 1202.222656 2156.085938 1206.578125 C 2156.949219 1210.929688 2157.710938 1215.304688 2158.359375 1219.695312 C 2159.011719 1224.085938 2159.554688 1228.492188 2159.992188 1232.910156 C 2160.425781 1237.328125 2160.753906 1241.753906 2160.96875 1246.1875 C 2161.1875 1250.625 2161.296875 1255.058594 2161.296875 1259.5 Z M 2161.296875 1259.5 " fill-opacity="1" fill-rule="nonzero"/></svg>