<svg xmlns="http://www.w3.org/2000/svg" xmlns:xlink="http://www.w3.org/1999/xlink" width="5040" zoomAndPan="magnify" viewBox="0 0 3780 2520.000003" height="3360" preserveAspectRatio="xMidYMid meet" version="1.0"><defs><clipPath id="07c9d43739"><path d="M 0.75 0 L 3779.25 0 L 3779.25 2519 L 0.75 2519 Z M 0.75 0 " clip-rule="nonzero"/></clipPath><clipPath id="64a02b9950"><path d="M 1192.039062 755.699219 L 2587.984375 755.699219 L 2587.984375 1763.300781 L 1192.039062 1763.300781 Z M 1192.039062 755.699219 " clip-rule="nonzero"/></clipPath><clipPath id="9b5f563728"><path d="M 1192.039062 755.699219 L 2587.984375 755.699219 L 2587.984375 1763.300781 L 1192.039062 1763.300781 Z M 1192.039062 755.699219 " clip-rule="nonzero"/></clipPath></defs><g clip-path="url(#07c9d43739)"><path fill="#ffffff" d="M 0.75 0 L 3779.25 0 L 3779.25 2519 L 0.75 2519 Z M 0.75 0 " fill-opacity="1" fill-rule="nonzero"/><path fill="#ffffff" d="M 0.75 0 L 3779.25 0 L 3779.25 2519 L 0.75 2519 Z M 0.75 0 " fill-opacity="1" fill-rule="nonzero"/></g><g clip-path="url(#64a02b9950)"><path fill="#00247d" d="M 1192.425781 913.003906 L 1192.425781 1065.730469 L 1410.539062 1065.730469 Z M 1373.179688 1763.300781 L 1696.238281 1763.300781 L 1696.238281 1537.09375 Z M 2083.789062 1537.132812 L 2083.789062 1763.300781 L 2406.808594 1763.300781 Z M 1192.425781 1453.269531 L 1192.425781 1606 L 1410.617188 1453.269531 Z M 2406.886719 755.699219 L 2083.789062 755.699219 L 2083.789062 981.90625 Z M 2587.601562 1606.035156 L 2587.601562 1453.269531 L 2369.371094 1453.269531 Z M 2587.601562 1065.730469 L 2587.601562 913.003906 L 2369.449219 1065.730469 Z M 1696.238281 755.699219 L 1373.179688 755.699219 L 1696.238281 981.90625 Z M 1696.238281 755.699219 " fill-opacity="1" fill-rule="nonzero"/></g><path fill="#cf1b2b" d="M 2166.722656 1453.269531 L 2543.109375 1716.835938 C 2561.363281 1698.269531 2574.421875 1674.902344 2581.476562 1649.054688 L 2301.859375 1453.269531 Z M 1696.238281 1453.269531 L 1613.265625 1453.269531 L 1236.917969 1716.796875 C 1257.109375 1737.335938 1282.996094 1752.023438 1312.023438 1758.84375 L 1696.238281 1489.8125 Z M 2083.789062 1065.730469 L 2166.761719 1065.730469 L 2543.109375 802.203125 C 2522.917969 781.664062 2497.070312 766.976562 2468.042969 760.15625 L 2083.789062 1029.1875 Z M 1613.265625 1065.730469 L 1236.917969 802.203125 C 1218.664062 820.804688 1205.601562 844.136719 1198.511719 869.984375 L 1478.125 1065.730469 Z M 1613.265625 1065.730469 " fill-opacity="1" fill-rule="nonzero"/><g clip-path="url(#9b5f563728)"><path fill="#eeeeee" d="M 2587.601562 1375.761719 L 2006.277344 1375.761719 L 2006.277344 1763.300781 L 2083.789062 1763.300781 L 2083.789062 1537.132812 L 2406.808594 1763.300781 L 2432.582031 1763.300781 C 2475.871094 1763.300781 2514.972656 1745.433594 2543.109375 1716.835938 L 2166.722656 1453.269531 L 2301.859375 1453.269531 L 2581.476562 1649.054688 C 2585.082031 1635.992188 2587.601562 1622.46875 2587.601562 1608.285156 L 2587.601562 1606.035156 L 2369.371094 1453.269531 L 2587.601562 1453.269531 Z M 1192.425781 1375.761719 L 1192.425781 1453.269531 L 1410.617188 1453.269531 L 1192.425781 1606 L 1192.425781 1608.285156 C 1192.425781 1650.566406 1209.441406 1688.816406 1236.917969 1716.796875 L 1613.265625 1453.269531 L 1696.238281 1453.269531 L 1696.238281 1489.8125 L 1312.023438 1758.804688 C 1323.417969 1761.515625 1335.199219 1763.300781 1347.445312 1763.300781 L 1373.179688 1763.300781 L 1696.238281 1537.09375 L 1696.238281 1763.300781 L 1773.75 1763.300781 L 1773.75 1375.761719 Z M 2587.601562 910.714844 C 2587.601562 868.433594 2570.585938 830.183594 2543.109375 802.203125 L 2166.761719 1065.730469 L 2083.789062 1065.730469 L 2083.789062 1029.1875 L 2468.042969 760.15625 C 2456.609375 757.484375 2444.828125 755.699219 2432.582031 755.699219 L 2406.886719 755.699219 L 2083.789062 981.90625 L 2083.789062 755.699219 L 2006.277344 755.699219 L 2006.277344 1143.238281 L 2587.601562 1143.238281 L 2587.601562 1065.730469 L 2369.449219 1065.730469 L 2587.601562 913.003906 Z M 1696.238281 755.699219 L 1696.238281 981.90625 L 1373.179688 755.699219 L 1347.445312 755.699219 C 1304.117188 755.699219 1265.050781 773.566406 1236.917969 802.203125 L 1613.265625 1065.730469 L 1478.125 1065.730469 L 1198.511719 869.984375 C 1194.945312 883.046875 1192.425781 896.53125 1192.425781 910.714844 L 1192.425781 913.003906 L 1410.539062 1065.730469 L 1192.425781 1065.730469 L 1192.425781 1143.238281 L 1773.75 1143.238281 L 1773.75 755.699219 Z M 1696.238281 755.699219 " fill-opacity="1" fill-rule="nonzero"/><path fill="#cf1b2b" d="M 2006.277344 1143.238281 L 2006.277344 755.699219 L 1773.75 755.699219 L 1773.75 1143.238281 L 1192.425781 1143.238281 L 1192.425781 1375.761719 L 1773.75 1375.761719 L 1773.75 1763.300781 L 2006.277344 1763.300781 L 2006.277344 1375.761719 L 2587.601562 1375.761719 L 2587.601562 1143.238281 Z M 2006.277344 1143.238281 " fill-opacity="1" fill-rule="nonzero"/></g></svg>