<svg xmlns="http://www.w3.org/2000/svg" xmlns:xlink="http://www.w3.org/1999/xlink" width="5040" zoomAndPan="magnify" viewBox="0 0 3780 2520.000003" height="3360" preserveAspectRatio="xMidYMid meet" version="1.0"><defs><clipPath id="5b78961fd9"><path d="M 0.75 0 L 3779.25 0 L 3779.25 2519 L 0.75 2519 Z M 0.75 0 " clip-rule="nonzero"/></clipPath><clipPath id="4f7b0bf035"><path d="M 1386.199219 755.699219 L 2393.800781 755.699219 L 2393.800781 1763.300781 L 1386.199219 1763.300781 Z M 1386.199219 755.699219 " clip-rule="nonzero"/></clipPath></defs><g clip-path="url(#5b78961fd9)"><path fill="#ffffff" d="M 0.75 0 L 3779.25 0 L 3779.25 2519 L 0.75 2519 Z M 0.75 0 " fill-opacity="1" fill-rule="nonzero"/><path fill="#ffffff" d="M 0.75 0 L 3779.25 0 L 3779.25 2519 L 0.75 2519 Z M 0.75 0 " fill-opacity="1" fill-rule="nonzero"/></g><g clip-path="url(#4f7b0bf035)"><path fill="#000000" d="M 2358.503906 1557.53125 L 2195.648438 1394.675781 C 2156.414062 1355.441406 2096.777344 1349.460938 2050.773438 1375.753906 L 1998.570312 1323.546875 C 2048.664062 1263.4375 2078.925781 1186.230469 2078.925781 1102.0625 C 2078.925781 911.089844 1923.535156 755.699219 1732.5625 755.699219 C 1541.589844 755.699219 1386.199219 911.089844 1386.199219 1102.0625 C 1386.199219 1293.035156 1541.589844 1448.425781 1732.5625 1448.425781 C 1816.726562 1448.425781 1893.9375 1418.164062 1954.046875 1368.070312 L 2006.21875 1420.242188 C 1979.898438 1466.277344 1985.910156 1525.914062 2025.175781 1565.148438 L 2188.027344 1728.003906 C 2210.761719 1750.769531 2241.054688 1763.300781 2273.265625 1763.300781 C 2339.703125 1763.300781 2393.800781 1709.203125 2393.800781 1642.765625 C 2393.800781 1610.554688 2381.269531 1580.296875 2358.503906 1557.53125 Z M 1449.175781 1102.0625 C 1449.175781 945.789062 1576.289062 818.675781 1732.5625 818.675781 C 1888.835938 818.675781 2015.949219 945.789062 2015.949219 1102.0625 C 2015.949219 1258.335938 1888.835938 1385.449219 1732.5625 1385.449219 C 1576.289062 1385.449219 1449.175781 1258.335938 1449.175781 1102.0625 Z M 2273.265625 1700.324219 C 2258.121094 1700.324219 2243.257812 1694.183594 2232.550781 1683.480469 L 2069.699219 1520.625 C 2047.25 1498.175781 2047.25 1461.648438 2069.699219 1439.199219 C 2080.910156 1427.988281 2095.675781 1422.386719 2110.414062 1422.386719 C 2125.148438 1422.386719 2139.917969 1427.988281 2151.125 1439.199219 L 2313.980469 1602.054688 C 2324.683594 1612.757812 2330.824219 1627.589844 2330.824219 1642.765625 C 2330.824219 1674.503906 2305.003906 1700.324219 2273.265625 1700.324219 Z M 2273.265625 1700.324219 " fill-opacity="1" fill-rule="nonzero"/></g><path fill="#000000" d="M 1512.148438 1102.0625 L 1575.125 1102.0625 C 1575.125 1015.25 1645.75 944.625 1732.5625 944.625 L 1732.5625 881.648438 C 1611.050781 881.648438 1512.148438 980.550781 1512.148438 1102.0625 Z M 1512.148438 1102.0625 " fill-opacity="1" fill-rule="nonzero"/></svg>