<svg xmlns="http://www.w3.org/2000/svg" xmlns:xlink="http://www.w3.org/1999/xlink" width="5040" zoomAndPan="magnify" viewBox="0 0 3780 2520.000003" height="3360" preserveAspectRatio="xMidYMid meet" version="1.0"><defs><clipPath id="ef7248e990"><path d="M 0.75 0 L 3779.25 0 L 3779.25 2519 L 0.75 2519 Z M 0.75 0 " clip-rule="nonzero"/></clipPath></defs><path fill="#662113" d="M 1855.226562 1188.300781 C 1855.226562 1314.113281 1783.527344 1245.496094 1695.039062 1245.496094 C 1606.578125 1245.496094 1534.847656 1314.140625 1534.847656 1188.300781 C 1534.847656 1106.183594 1606.578125 1016.742188 1695.039062 1016.742188 C 1783.5 1016.742188 1855.226562 1106.183594 1855.226562 1188.300781 Z M 1528.671875 961.652344 C 1539.707031 999.121094 1528.867188 1035.320312 1504.472656 1042.507812 C 1480.046875 1049.691406 1451.328125 1025.136719 1440.296875 987.640625 C 1429.261719 950.175781 1440.070312 913.972656 1464.496094 906.789062 C 1488.917969 899.601562 1517.640625 924.160156 1528.671875 961.652344 Z M 1949.78125 988.144531 C 1938.355469 1025.527344 1909.300781 1049.773438 1884.875 1042.308594 C 1860.449219 1034.84375 1849.949219 998.5 1861.375 961.121094 C 1872.804688 923.738281 1901.859375 899.492188 1926.285156 906.957031 C 1950.679688 914.421875 1961.207031 950.765625 1949.78125 988.144531 Z M 1665.953125 851.78125 C 1676.230469 905.046875 1659.863281 952.980469 1629.402344 958.847656 C 1598.96875 964.683594 1565.953125 926.265625 1555.707031 872.996094 C 1545.402344 819.730469 1561.769531 771.796875 1592.230469 765.933594 C 1622.691406 760.066406 1655.707031 798.515625 1665.953125 851.78125 Z M 1834.285156 873.617188 C 1823.421875 926.769531 1789.984375 964.824219 1759.609375 958.621094 C 1729.234375 952.421875 1713.398438 904.289062 1724.261719 851.136719 C 1735.128906 797.980469 1768.5625 759.925781 1798.941406 766.128906 C 1829.316406 772.359375 1845.121094 820.460938 1834.285156 873.617188 Z M 2248.265625 1637.332031 C 2248.265625 1763.144531 2176.535156 1694.527344 2088.074219 1694.527344 C 1999.613281 1694.527344 1927.882812 1763.144531 1927.882812 1637.332031 C 1927.882812 1555.242188 1999.613281 1465.773438 2088.074219 1465.773438 C 2176.535156 1465.773438 2248.265625 1555.242188 2248.265625 1637.332031 Z M 1921.707031 1410.65625 C 1932.769531 1448.148438 1921.902344 1484.351562 1897.507812 1491.535156 C 1873.082031 1498.71875 1844.363281 1474.164062 1833.332031 1436.699219 C 1822.296875 1399.203125 1833.132812 1363 1857.53125 1355.816406 C 1881.953125 1348.632812 1910.675781 1373.1875 1921.707031 1410.65625 Z M 2342.816406 1437.175781 C 2331.390625 1474.558594 2302.335938 1498.804688 2277.910156 1491.339844 C 2253.515625 1483.875 2242.984375 1447.53125 2254.410156 1410.175781 C 2265.839844 1372.796875 2294.894531 1348.546875 2319.320312 1356.011719 C 2343.714844 1363.449219 2354.242188 1399.792969 2342.816406 1437.175781 Z M 2058.988281 1300.8125 C 2069.234375 1354.050781 2052.867188 1402.011719 2022.4375 1407.847656 C 1991.976562 1413.714844 1958.960938 1375.292969 1948.714844 1322 C 1938.46875 1268.734375 1954.835938 1220.800781 1985.265625 1214.933594 C 2015.726562 1209.097656 2048.742188 1247.542969 2058.988281 1300.8125 Z M 2227.320312 1322.644531 C 2216.429688 1375.769531 2183.019531 1413.855469 2152.644531 1407.652344 C 2122.269531 1401.421875 2106.40625 1353.292969 2117.269531 1300.164062 C 2128.164062 1247.011719 2161.570312 1208.957031 2191.949219 1215.160156 C 2222.324219 1221.390625 2238.183594 1269.519531 2227.320312 1322.644531 Z M 2227.320312 1322.644531 " fill-opacity="1" fill-rule="nonzero"/></svg>