<svg xmlns="http://www.w3.org/2000/svg" xmlns:xlink="http://www.w3.org/1999/xlink" width="5040" zoomAndPan="magnify" viewBox="0 0 3780 2520.000003" height="3360" preserveAspectRatio="xMidYMid meet" version="1.0"><defs><clipPath id="6d812ad2a6"><path d="M 0.75 0 L 3779.25 0 L 3779.25 2519 L 0.75 2519 Z M 0.75 0 " clip-rule="nonzero"/></clipPath><clipPath id="d3cf3b078b"><path d="M 1484.210938 755.699219 L 2296.140625 755.699219 L 2296.140625 1762 L 1484.210938 1762 Z M 1484.210938 755.699219 " clip-rule="nonzero"/></clipPath></defs><g clip-path="url(#6d812ad2a6)"><path fill="#ffffff" d="M 0.75 0 L 3779.25 0 L 3779.25 2519 L 0.75 2519 Z M 0.75 0 " fill-opacity="1" fill-rule="nonzero"/><path fill="#ffffff" d="M 0.75 0 L 3779.25 0 L 3779.25 2519 L 0.75 2519 Z M 0.75 0 " fill-opacity="1" fill-rule="nonzero"/></g><g clip-path="url(#d3cf3b078b)"><path fill="#000000" d="M 2143.496094 1471.480469 L 2003.84375 1440.480469 L 2003.84375 1406.554688 C 2015.269531 1399.945312 2026.039062 1392.402344 2036.15625 1383.925781 C 2046.273438 1375.449219 2055.585938 1366.167969 2064.089844 1356.078125 L 2117.515625 1356.078125 C 2119.109375 1356.078125 2120.703125 1356 2122.289062 1355.84375 C 2123.878906 1355.6875 2125.453125 1355.453125 2127.019531 1355.140625 C 2128.585938 1354.828125 2130.128906 1354.441406 2131.65625 1353.980469 C 2133.183594 1353.515625 2134.683594 1352.980469 2136.15625 1352.371094 C 2137.632812 1351.757812 2139.074219 1351.078125 2140.480469 1350.328125 C 2141.886719 1349.574219 2143.253906 1348.757812 2144.582031 1347.871094 C 2145.90625 1346.984375 2147.1875 1346.035156 2148.421875 1345.023438 C 2149.652344 1344.011719 2150.835938 1342.941406 2151.960938 1341.8125 C 2153.089844 1340.6875 2154.160156 1339.507812 2155.171875 1338.273438 C 2156.183594 1337.039062 2157.132812 1335.761719 2158.019531 1334.433594 C 2158.90625 1333.109375 2159.726562 1331.742188 2160.480469 1330.335938 C 2161.230469 1328.929688 2161.914062 1327.492188 2162.523438 1326.015625 C 2163.132812 1324.542969 2163.671875 1323.042969 2164.132812 1321.519531 C 2164.597656 1319.992188 2164.984375 1318.445312 2165.296875 1316.882812 C 2165.605469 1315.316406 2165.839844 1313.742188 2165.996094 1312.15625 C 2166.152344 1310.566406 2166.230469 1308.976562 2166.230469 1307.382812 L 2166.230469 1291.152344 C 2167.828125 1291.152344 2169.417969 1291.074219 2171.007812 1290.917969 C 2172.59375 1290.761719 2174.171875 1290.527344 2175.734375 1290.214844 C 2177.300781 1289.90625 2178.84375 1289.515625 2180.371094 1289.054688 C 2181.898438 1288.589844 2183.398438 1288.054688 2184.875 1287.445312 C 2186.347656 1286.835938 2187.789062 1286.152344 2189.195312 1285.402344 C 2190.601562 1284.648438 2191.96875 1283.832031 2193.296875 1282.945312 C 2194.621094 1282.058594 2195.902344 1281.109375 2197.136719 1280.097656 C 2198.371094 1279.085938 2199.550781 1278.015625 2200.679688 1276.890625 C 2201.804688 1275.761719 2202.875 1274.582031 2203.890625 1273.347656 C 2204.902344 1272.117188 2205.851562 1270.835938 2206.738281 1269.511719 C 2207.621094 1268.183594 2208.441406 1266.816406 2209.195312 1265.410156 C 2209.945312 1264.003906 2210.628906 1262.566406 2211.238281 1261.089844 C 2211.847656 1259.617188 2212.386719 1258.117188 2212.847656 1256.59375 C 2213.3125 1255.066406 2213.699219 1253.519531 2214.011719 1251.957031 C 2214.320312 1250.394531 2214.554688 1248.816406 2214.710938 1247.230469 C 2214.867188 1245.644531 2214.945312 1244.050781 2214.945312 1242.457031 L 2214.945312 1145.070312 C 2214.941406 1143.824219 2214.890625 1142.578125 2214.792969 1141.335938 C 2214.695312 1140.09375 2214.546875 1138.855469 2214.351562 1137.625 C 2214.160156 1136.394531 2213.917969 1135.171875 2213.628906 1133.960938 C 2213.339844 1132.746094 2213.007812 1131.546875 2212.628906 1130.359375 C 2212.246094 1129.171875 2211.820312 1128 2211.351562 1126.847656 C 2210.882812 1125.691406 2210.367188 1124.558594 2209.808594 1123.441406 C 2209.253906 1122.328125 2208.652344 1121.234375 2208.011719 1120.164062 C 2207.371094 1119.097656 2206.6875 1118.054688 2205.96875 1117.039062 C 2205.246094 1116.019531 2204.488281 1115.03125 2203.691406 1114.074219 C 2202.890625 1113.117188 2202.058594 1112.1875 2201.191406 1111.292969 C 2200.324219 1110.398438 2199.421875 1109.539062 2198.488281 1108.714844 C 2197.550781 1107.890625 2196.585938 1107.101562 2195.59375 1106.351562 C 2194.597656 1105.597656 2193.574219 1104.886719 2192.523438 1104.214844 C 2191.476562 1103.542969 2190.402344 1102.910156 2189.300781 1102.320312 C 2188.203125 1101.730469 2187.085938 1101.183594 2185.945312 1100.675781 C 2184.804688 1100.171875 2183.644531 1099.714844 2182.46875 1099.296875 L 2182.46875 1047.683594 C 2182.46875 1042.902344 2182.351562 1038.121094 2182.117188 1033.347656 C 2181.882812 1028.570312 2181.53125 1023.804688 2181.0625 1019.042969 C 2180.59375 1014.285156 2180.007812 1009.542969 2179.304688 1004.8125 C 2178.605469 1000.082031 2177.785156 995.375 2176.851562 990.683594 C 2175.921875 985.992188 2174.871094 981.332031 2173.710938 976.691406 C 2172.546875 972.054688 2171.273438 967.445312 2169.882812 962.871094 C 2168.496094 958.296875 2166.996094 953.757812 2165.382812 949.253906 C 2163.773438 944.753906 2162.050781 940.292969 2160.21875 935.875 C 2158.390625 931.457031 2156.453125 927.089844 2154.40625 922.765625 C 2152.359375 918.445312 2150.210938 914.175781 2147.957031 909.957031 C 2145.699219 905.738281 2143.34375 901.582031 2140.882812 897.480469 C 2138.425781 893.378906 2135.867188 889.339844 2133.210938 885.363281 C 2130.550781 881.390625 2127.796875 877.480469 2124.949219 873.640625 C 2122.097656 869.800781 2119.15625 866.03125 2116.121094 862.335938 C 2113.085938 858.640625 2109.964844 855.019531 2106.75 851.476562 C 2103.539062 847.933594 2100.242188 844.472656 2096.859375 841.089844 C 2093.476562 837.710938 2090.011719 834.414062 2086.46875 831.203125 C 2082.925781 827.992188 2079.304688 824.871094 2075.605469 821.835938 C 2071.90625 818.804688 2068.136719 815.863281 2064.296875 813.015625 C 2060.453125 810.164062 2056.542969 807.414062 2052.566406 804.757812 C 2048.589844 802.101562 2044.546875 799.542969 2040.445312 797.085938 C 2036.339844 794.625 2032.179688 792.269531 2027.960938 790.015625 C 2023.742188 787.761719 2019.472656 785.613281 2015.148438 783.570312 C 2010.824219 781.523438 2006.449219 779.589844 2002.03125 777.757812 C 1997.613281 775.929688 1993.152344 774.207031 1988.644531 772.597656 C 1984.140625 770.988281 1979.601562 769.488281 1975.023438 768.097656 C 1970.445312 766.710938 1965.835938 765.4375 1961.195312 764.273438 C 1956.558594 763.113281 1951.890625 762.066406 1947.199219 761.132812 C 1942.507812 760.199219 1937.796875 759.382812 1933.0625 758.679688 C 1928.332031 757.980469 1923.585938 757.394531 1918.824219 756.925781 C 1914.066406 756.457031 1909.296875 756.105469 1904.519531 755.871094 C 1899.738281 755.636719 1894.960938 755.519531 1890.175781 755.519531 C 1885.390625 755.519531 1880.613281 755.636719 1875.832031 755.871094 C 1871.054688 756.105469 1866.285156 756.457031 1861.527344 756.925781 C 1856.765625 757.394531 1852.019531 757.980469 1847.289062 758.679688 C 1842.554688 759.382812 1837.84375 760.199219 1833.152344 761.132812 C 1828.460938 762.066406 1823.792969 763.113281 1819.152344 764.273438 C 1814.515625 765.4375 1809.90625 766.710938 1805.328125 768.097656 C 1800.75 769.488281 1796.207031 770.988281 1791.703125 772.597656 C 1787.199219 774.207031 1782.738281 775.929688 1778.320312 777.757812 C 1773.898438 779.589844 1769.527344 781.523438 1765.203125 783.570312 C 1760.878906 785.613281 1756.609375 787.761719 1752.390625 790.015625 C 1748.171875 792.269531 1744.007812 794.625 1739.90625 797.085938 C 1735.804688 799.542969 1731.761719 802.101562 1727.785156 804.757812 C 1723.808594 807.414062 1719.898438 810.164062 1716.054688 813.015625 C 1712.214844 815.863281 1708.445312 818.804688 1704.746094 821.835938 C 1701.046875 824.871094 1697.425781 827.992188 1693.882812 831.203125 C 1690.339844 834.414062 1686.875 837.710938 1683.492188 841.089844 C 1680.109375 844.472656 1676.8125 847.933594 1673.601562 851.476562 C 1670.386719 855.019531 1667.265625 858.640625 1664.230469 862.335938 C 1661.195312 866.03125 1658.253906 869.800781 1655.402344 873.640625 C 1652.554688 877.480469 1649.800781 881.390625 1647.140625 885.363281 C 1644.484375 889.339844 1641.925781 893.378906 1639.464844 897.480469 C 1637.007812 901.582031 1634.648438 905.738281 1632.394531 909.957031 C 1630.140625 914.175781 1627.992188 918.445312 1625.945312 922.765625 C 1623.898438 927.089844 1621.960938 931.457031 1620.132812 935.875 C 1618.300781 940.292969 1616.578125 944.753906 1614.96875 949.253906 C 1613.355469 953.757812 1611.855469 958.296875 1610.46875 962.871094 C 1609.078125 967.445312 1607.804688 972.054688 1606.640625 976.691406 C 1605.480469 981.332031 1604.429688 985.992188 1603.496094 990.683594 C 1602.566406 995.375 1601.746094 1000.082031 1601.046875 1004.8125 C 1600.34375 1009.542969 1599.757812 1014.285156 1599.289062 1019.042969 C 1598.820312 1023.804688 1598.46875 1028.570312 1598.234375 1033.347656 C 1598 1038.121094 1597.882812 1042.902344 1597.882812 1047.683594 L 1597.882812 1099.296875 C 1596.707031 1099.714844 1595.546875 1100.171875 1594.40625 1100.675781 C 1593.265625 1101.183594 1592.148438 1101.730469 1591.050781 1102.320312 C 1589.949219 1102.910156 1588.875 1103.542969 1587.828125 1104.214844 C 1586.777344 1104.886719 1585.753906 1105.597656 1584.757812 1106.351562 C 1583.765625 1107.101562 1582.800781 1107.890625 1581.863281 1108.714844 C 1580.929688 1109.539062 1580.027344 1110.398438 1579.160156 1111.292969 C 1578.292969 1112.1875 1577.457031 1113.117188 1576.660156 1114.074219 C 1575.863281 1115.03125 1575.105469 1116.019531 1574.382812 1117.039062 C 1573.660156 1118.054688 1572.980469 1119.097656 1572.339844 1120.164062 C 1571.699219 1121.234375 1571.097656 1122.328125 1570.542969 1123.441406 C 1569.984375 1124.558594 1569.46875 1125.691406 1569 1126.847656 C 1568.53125 1128 1568.105469 1129.171875 1567.722656 1130.359375 C 1567.34375 1131.546875 1567.011719 1132.746094 1566.722656 1133.960938 C 1566.433594 1135.171875 1566.191406 1136.394531 1566 1137.625 C 1565.804688 1138.855469 1565.65625 1140.09375 1565.558594 1141.335938 C 1565.460938 1142.578125 1565.40625 1143.824219 1565.40625 1145.070312 L 1565.40625 1242.457031 C 1565.40625 1244.050781 1565.484375 1245.644531 1565.640625 1247.230469 C 1565.796875 1248.816406 1566.03125 1250.394531 1566.339844 1251.957031 C 1566.652344 1253.519531 1567.039062 1255.066406 1567.503906 1256.59375 C 1567.964844 1258.117188 1568.503906 1259.617188 1569.113281 1261.089844 C 1569.722656 1262.566406 1570.40625 1264.003906 1571.15625 1265.410156 C 1571.910156 1266.816406 1572.726562 1268.183594 1573.613281 1269.511719 C 1574.5 1270.835938 1575.449219 1272.117188 1576.460938 1273.347656 C 1577.476562 1274.582031 1578.542969 1275.761719 1579.671875 1276.890625 C 1580.800781 1278.015625 1581.980469 1279.085938 1583.214844 1280.097656 C 1584.449219 1281.109375 1585.730469 1282.058594 1587.054688 1282.945312 C 1588.382812 1283.832031 1589.75 1284.648438 1591.15625 1285.402344 C 1592.5625 1286.152344 1594.003906 1286.835938 1595.476562 1287.445312 C 1596.953125 1288.054688 1598.453125 1288.589844 1599.980469 1289.054688 C 1601.503906 1289.515625 1603.050781 1289.90625 1604.617188 1290.214844 C 1606.179688 1290.527344 1607.757812 1290.761719 1609.34375 1290.917969 C 1610.933594 1291.074219 1612.523438 1291.152344 1614.121094 1291.152344 L 1678.101562 1291.152344 C 1680.417969 1297.164062 1682.984375 1303.070312 1685.800781 1308.867188 C 1688.617188 1314.660156 1691.675781 1320.328125 1694.972656 1325.867188 C 1698.269531 1331.40625 1701.792969 1336.792969 1705.546875 1342.03125 C 1709.300781 1347.273438 1713.265625 1352.34375 1717.449219 1357.25 C 1721.628906 1362.152344 1726.011719 1366.871094 1730.59375 1371.40625 C 1735.175781 1375.941406 1739.9375 1380.273438 1744.886719 1384.402344 C 1749.835938 1388.535156 1754.949219 1392.449219 1760.226562 1396.148438 C 1765.507812 1399.847656 1770.933594 1403.316406 1776.503906 1406.554688 L 1776.503906 1440.480469 L 1636.855469 1471.480469 C 1634.167969 1472.0625 1631.496094 1472.703125 1628.839844 1473.398438 C 1626.179688 1474.09375 1623.539062 1474.847656 1620.914062 1475.65625 C 1618.289062 1476.464844 1615.679688 1477.328125 1613.089844 1478.246094 C 1610.5 1479.167969 1607.933594 1480.140625 1605.386719 1481.167969 C 1602.835938 1482.199219 1600.3125 1483.28125 1597.8125 1484.414062 C 1595.308594 1485.550781 1592.832031 1486.738281 1590.382812 1487.980469 C 1587.929688 1489.222656 1585.507812 1490.515625 1583.109375 1491.859375 C 1580.714844 1493.203125 1578.347656 1494.597656 1576.011719 1496.042969 C 1573.675781 1497.488281 1571.371094 1498.984375 1569.097656 1500.527344 C 1566.824219 1502.070312 1564.585938 1503.660156 1562.378906 1505.296875 C 1560.175781 1506.9375 1558.003906 1508.621094 1555.871094 1510.351562 C 1553.738281 1512.082031 1551.640625 1513.855469 1549.582031 1515.675781 C 1547.523438 1517.496094 1545.507812 1519.359375 1543.527344 1521.265625 C 1541.550781 1523.167969 1539.613281 1525.117188 1537.714844 1527.105469 C 1535.820312 1529.09375 1533.96875 1531.121094 1532.15625 1533.1875 C 1530.347656 1535.253906 1528.582031 1537.359375 1526.863281 1539.5 C 1525.144531 1541.640625 1523.46875 1543.816406 1521.84375 1546.03125 C 1520.214844 1548.246094 1518.636719 1550.492188 1517.101562 1552.769531 C 1515.570312 1555.050781 1514.089844 1557.363281 1512.65625 1559.707031 C 1511.222656 1562.050781 1509.839844 1564.421875 1508.507812 1566.824219 C 1507.175781 1569.226562 1505.894531 1571.65625 1504.664062 1574.113281 C 1503.4375 1576.566406 1502.261719 1579.050781 1501.136719 1581.554688 C 1500.015625 1584.0625 1498.945312 1586.59375 1497.929688 1589.144531 C 1496.914062 1591.695312 1495.953125 1594.269531 1495.046875 1596.859375 C 1494.140625 1599.453125 1493.289062 1602.066406 1492.496094 1604.695312 C 1491.699219 1607.324219 1490.960938 1609.96875 1490.277344 1612.628906 C 1489.597656 1615.289062 1488.972656 1617.960938 1488.402344 1620.648438 C 1487.832031 1623.335938 1487.324219 1626.035156 1486.867188 1628.742188 C 1486.414062 1631.453125 1486.019531 1634.167969 1485.679688 1636.894531 C 1485.34375 1639.621094 1485.0625 1642.351562 1484.84375 1645.089844 C 1484.621094 1647.828125 1484.457031 1650.570312 1484.351562 1653.3125 C 1484.246094 1656.058594 1484.199219 1658.804688 1484.210938 1661.550781 L 1484.210938 1745.628906 C 1484.210938 1746.160156 1484.238281 1746.6875 1484.289062 1747.21875 C 1484.34375 1747.746094 1484.421875 1748.273438 1484.523438 1748.792969 C 1484.628906 1749.316406 1484.757812 1749.832031 1484.910156 1750.339844 C 1485.066406 1750.847656 1485.246094 1751.347656 1485.449219 1751.839844 C 1485.652344 1752.328125 1485.878906 1752.808594 1486.128906 1753.277344 C 1486.378906 1753.746094 1486.652344 1754.203125 1486.949219 1754.644531 C 1487.242188 1755.085938 1487.558594 1755.511719 1487.898438 1755.925781 C 1488.234375 1756.335938 1488.59375 1756.730469 1488.96875 1757.105469 C 1489.34375 1757.480469 1489.738281 1757.835938 1490.148438 1758.175781 C 1490.558594 1758.511719 1490.988281 1758.828125 1491.429688 1759.125 C 1491.871094 1759.417969 1492.328125 1759.691406 1492.796875 1759.941406 C 1493.265625 1760.191406 1493.746094 1760.417969 1494.234375 1760.625 C 1494.726562 1760.828125 1495.226562 1761.003906 1495.738281 1761.160156 C 1496.246094 1761.3125 1496.761719 1761.441406 1497.28125 1761.546875 C 1497.804688 1761.652344 1498.328125 1761.726562 1498.859375 1761.78125 C 1499.386719 1761.832031 1499.917969 1761.859375 1500.449219 1761.859375 L 2279.902344 1761.859375 C 2280.433594 1761.859375 2280.964844 1761.832031 2281.492188 1761.78125 C 2282.023438 1761.726562 2282.546875 1761.652344 2283.070312 1761.546875 C 2283.589844 1761.441406 2284.105469 1761.3125 2284.613281 1761.160156 C 2285.125 1761.003906 2285.625 1760.828125 2286.113281 1760.625 C 2286.605469 1760.417969 2287.085938 1760.191406 2287.554688 1759.941406 C 2288.023438 1759.691406 2288.480469 1759.417969 2288.921875 1759.125 C 2289.363281 1758.828125 2289.792969 1758.511719 2290.203125 1758.175781 C 2290.613281 1757.835938 2291.007812 1757.480469 2291.382812 1757.105469 C 2291.757812 1756.730469 2292.117188 1756.335938 2292.453125 1755.925781 C 2292.789062 1755.511719 2293.105469 1755.085938 2293.402344 1754.644531 C 2293.699219 1754.203125 2293.972656 1753.746094 2294.222656 1753.277344 C 2294.472656 1752.808594 2294.699219 1752.328125 2294.902344 1751.839844 C 2295.105469 1751.347656 2295.285156 1750.847656 2295.441406 1750.339844 C 2295.59375 1749.832031 2295.722656 1749.316406 2295.828125 1748.792969 C 2295.929688 1748.273438 2296.007812 1747.746094 2296.0625 1747.21875 C 2296.113281 1746.6875 2296.140625 1746.160156 2296.140625 1745.628906 L 2296.140625 1661.550781 C 2296.152344 1658.804688 2296.105469 1656.058594 2296 1653.3125 C 2295.894531 1650.570312 2295.730469 1647.828125 2295.507812 1645.089844 C 2295.289062 1642.351562 2295.007812 1639.621094 2294.667969 1636.894531 C 2294.332031 1634.167969 2293.9375 1631.453125 2293.480469 1628.742188 C 2293.027344 1626.035156 2292.515625 1623.335938 2291.949219 1620.648438 C 2291.378906 1617.960938 2290.753906 1615.289062 2290.074219 1612.628906 C 2289.390625 1609.96875 2288.652344 1607.324219 2287.855469 1604.695312 C 2287.0625 1602.066406 2286.210938 1599.453125 2285.304688 1596.863281 C 2284.398438 1594.269531 2283.4375 1591.695312 2282.421875 1589.144531 C 2281.40625 1586.59375 2280.335938 1584.0625 2279.214844 1581.554688 C 2278.089844 1579.050781 2276.914062 1576.566406 2275.6875 1574.113281 C 2274.457031 1571.65625 2273.175781 1569.226562 2271.84375 1566.824219 C 2270.511719 1564.421875 2269.128906 1562.050781 2267.695312 1559.707031 C 2266.261719 1557.363281 2264.78125 1555.050781 2263.246094 1552.769531 C 2261.714844 1550.492188 2260.136719 1548.246094 2258.507812 1546.03125 C 2256.882812 1543.820312 2255.207031 1541.640625 2253.488281 1539.5 C 2251.769531 1537.359375 2250.003906 1535.253906 2248.195312 1533.1875 C 2246.382812 1531.121094 2244.53125 1529.09375 2242.636719 1527.105469 C 2240.738281 1525.117188 2238.800781 1523.167969 2236.824219 1521.265625 C 2234.84375 1519.359375 2232.824219 1517.496094 2230.769531 1515.675781 C 2228.710938 1513.855469 2226.613281 1512.082031 2224.480469 1510.351562 C 2222.347656 1508.621094 2220.175781 1506.9375 2217.972656 1505.296875 C 2215.765625 1503.660156 2213.527344 1502.070312 2211.253906 1500.527344 C 2208.980469 1498.984375 2206.675781 1497.488281 2204.339844 1496.042969 C 2202.003906 1494.597656 2199.636719 1493.203125 2197.238281 1491.859375 C 2194.84375 1490.515625 2192.421875 1489.222656 2189.96875 1487.980469 C 2187.519531 1486.738281 2185.042969 1485.550781 2182.539062 1484.414062 C 2180.039062 1483.28125 2177.515625 1482.199219 2174.964844 1481.167969 C 2172.417969 1480.140625 2169.851562 1479.167969 2167.261719 1478.246094 C 2164.671875 1477.328125 2162.0625 1476.464844 2159.4375 1475.65625 C 2156.8125 1474.847656 2154.171875 1474.09375 2151.511719 1473.398438 C 2148.855469 1472.703125 2146.183594 1472.0625 2143.496094 1471.480469 Z M 2027.554688 1478.949219 L 1966.007812 1577.472656 L 1916.320312 1547.605469 L 1992.804688 1471.320312 Z M 2133.753906 1307.382812 C 2133.753906 1307.914062 2133.726562 1308.445312 2133.675781 1308.972656 C 2133.625 1309.503906 2133.546875 1310.027344 2133.441406 1310.550781 C 2133.339844 1311.070312 2133.210938 1311.585938 2133.054688 1312.09375 C 2132.898438 1312.601562 2132.722656 1313.101562 2132.519531 1313.59375 C 2132.3125 1314.085938 2132.085938 1314.566406 2131.835938 1315.035156 C 2131.585938 1315.503906 2131.3125 1315.957031 2131.015625 1316.398438 C 2130.722656 1316.84375 2130.40625 1317.269531 2130.066406 1317.679688 C 2129.730469 1318.089844 2129.375 1318.484375 2128.996094 1318.859375 C 2128.621094 1319.234375 2128.226562 1319.59375 2127.816406 1319.929688 C 2127.40625 1320.265625 2126.980469 1320.582031 2126.535156 1320.878906 C 2126.09375 1321.171875 2125.640625 1321.445312 2125.171875 1321.695312 C 2124.699219 1321.949219 2124.222656 1322.175781 2123.730469 1322.378906 C 2123.238281 1322.582031 2122.738281 1322.761719 2122.230469 1322.914062 C 2121.71875 1323.070312 2121.203125 1323.199219 2120.683594 1323.300781 C 2120.160156 1323.40625 2119.636719 1323.484375 2119.105469 1323.535156 C 2118.578125 1323.585938 2118.046875 1323.613281 2117.515625 1323.613281 L 2086.824219 1323.613281 C 2093.097656 1313.222656 2098.511719 1302.402344 2103.0625 1291.152344 L 2133.753906 1291.152344 Z M 2085.039062 1096.375 L 2033.5625 1096.375 C 2030.3125 1096.378906 2027.066406 1096.277344 2023.824219 1096.070312 C 2020.582031 1095.863281 2017.347656 1095.550781 2014.125 1095.136719 C 2010.90625 1094.722656 2007.699219 1094.207031 2004.507812 1093.585938 C 2001.320312 1092.964844 1998.152344 1092.246094 1995.011719 1091.421875 C 1991.867188 1090.597656 1988.753906 1089.675781 1985.671875 1088.652344 C 1982.585938 1087.628906 1979.539062 1086.507812 1976.527344 1085.285156 C 1973.515625 1084.066406 1970.546875 1082.753906 1967.621094 1081.34375 C 1964.695312 1079.933594 1961.816406 1078.429688 1958.984375 1076.835938 C 1956.15625 1075.242188 1953.378906 1073.558594 1950.65625 1071.785156 C 1947.933594 1070.011719 1945.273438 1068.152344 1942.667969 1066.207031 C 1940.066406 1064.261719 1937.53125 1062.238281 1935.058594 1060.128906 C 1932.585938 1058.023438 1930.183594 1055.839844 1927.851562 1053.578125 C 1925.519531 1051.316406 1923.261719 1048.980469 1921.082031 1046.574219 C 1918.898438 1044.167969 1916.796875 1041.695312 1914.773438 1039.152344 C 1912.75 1036.609375 1910.8125 1034.007812 1908.957031 1031.339844 C 1907.101562 1028.675781 1905.332031 1025.953125 1903.652344 1023.171875 C 1903.296875 1022.570312 1902.902344 1021.992188 1902.46875 1021.441406 C 1902.035156 1020.890625 1901.566406 1020.367188 1901.066406 1019.875 C 1900.566406 1019.382812 1900.039062 1018.925781 1899.476562 1018.503906 C 1898.917969 1018.082031 1898.332031 1017.699219 1897.722656 1017.351562 C 1897.113281 1017.003906 1896.484375 1016.699219 1895.835938 1016.433594 C 1895.1875 1016.167969 1894.523438 1015.945312 1893.84375 1015.765625 C 1893.167969 1015.585938 1892.480469 1015.449219 1891.785156 1015.359375 C 1891.089844 1015.269531 1890.390625 1015.222656 1889.6875 1015.222656 C 1888.988281 1015.222656 1888.289062 1015.269531 1887.59375 1015.359375 C 1886.898438 1015.449219 1886.210938 1015.585938 1885.53125 1015.765625 C 1884.855469 1015.945312 1884.191406 1016.167969 1883.542969 1016.433594 C 1882.890625 1016.699219 1882.261719 1017.003906 1881.652344 1017.351562 C 1881.042969 1017.699219 1880.460938 1018.082031 1879.898438 1018.503906 C 1879.339844 1018.925781 1878.808594 1019.382812 1878.308594 1019.875 C 1877.808594 1020.367188 1877.34375 1020.890625 1876.910156 1021.441406 C 1876.476562 1021.992188 1876.082031 1022.570312 1875.722656 1023.171875 C 1874.042969 1025.953125 1872.277344 1028.675781 1870.421875 1031.339844 C 1868.566406 1034.007812 1866.625 1036.609375 1864.601562 1039.152344 C 1862.582031 1041.695312 1860.476562 1044.167969 1858.296875 1046.574219 C 1856.113281 1048.980469 1853.859375 1051.316406 1851.527344 1053.578125 C 1849.195312 1055.839844 1846.792969 1058.023438 1844.320312 1060.128906 C 1841.847656 1062.238281 1839.308594 1064.261719 1836.707031 1066.207031 C 1834.105469 1068.152344 1831.441406 1070.011719 1828.71875 1071.785156 C 1826 1073.558594 1823.222656 1075.242188 1820.390625 1076.835938 C 1817.5625 1078.429688 1814.683594 1079.933594 1811.757812 1081.34375 C 1808.828125 1082.753906 1805.859375 1084.066406 1802.847656 1085.285156 C 1799.835938 1086.507812 1796.789062 1087.628906 1793.707031 1088.652344 C 1790.621094 1089.675781 1787.507812 1090.597656 1784.367188 1091.421875 C 1781.222656 1092.246094 1778.058594 1092.964844 1774.867188 1093.585938 C 1771.679688 1094.207031 1768.472656 1094.722656 1765.25 1095.136719 C 1762.027344 1095.550781 1758.796875 1095.863281 1755.550781 1096.070312 C 1752.308594 1096.277344 1749.0625 1096.378906 1745.816406 1096.375 L 1695.3125 1096.375 L 1695.3125 1047.683594 C 1695.3125 1044.496094 1695.390625 1041.308594 1695.546875 1038.125 C 1695.703125 1034.941406 1695.9375 1031.761719 1696.25 1028.589844 C 1696.5625 1025.417969 1696.953125 1022.253906 1697.421875 1019.101562 C 1697.890625 1015.949219 1698.433594 1012.808594 1699.058594 1009.683594 C 1699.679688 1006.558594 1700.378906 1003.449219 1701.152344 1000.355469 C 1701.925781 997.261719 1702.777344 994.191406 1703.703125 991.140625 C 1704.628906 988.089844 1705.628906 985.066406 1706.703125 982.0625 C 1707.777344 979.0625 1708.925781 976.089844 1710.144531 973.144531 C 1711.367188 970.199219 1712.660156 967.285156 1714.023438 964.40625 C 1715.386719 961.523438 1716.820312 958.675781 1718.320312 955.867188 C 1719.824219 953.054688 1721.398438 950.28125 1723.035156 947.546875 C 1724.675781 944.8125 1726.382812 942.121094 1728.152344 939.46875 C 1729.925781 936.820312 1731.761719 934.214844 1733.660156 931.652344 C 1735.558594 929.09375 1737.523438 926.582031 1739.542969 924.117188 C 1741.566406 921.652344 1743.648438 919.242188 1745.792969 916.878906 C 1747.933594 914.515625 1750.132812 912.207031 1752.386719 909.953125 C 1754.640625 907.699219 1756.949219 905.503906 1759.3125 903.363281 C 1761.675781 901.222656 1764.089844 899.140625 1766.554688 897.117188 C 1769.019531 895.097656 1771.535156 893.136719 1774.097656 891.238281 C 1776.65625 889.335938 1779.265625 887.503906 1781.914062 885.730469 C 1784.566406 883.960938 1787.261719 882.257812 1789.996094 880.617188 C 1792.730469 878.980469 1795.503906 877.40625 1798.316406 875.90625 C 1801.128906 874.402344 1803.976562 872.96875 1806.859375 871.605469 C 1809.742188 870.242188 1812.660156 868.953125 1815.605469 867.734375 C 1818.550781 866.511719 1821.527344 865.367188 1824.527344 864.292969 C 1827.53125 863.21875 1830.558594 862.21875 1833.609375 861.292969 C 1836.660156 860.367188 1839.734375 859.519531 1842.828125 858.742188 C 1845.921875 857.96875 1849.03125 857.269531 1852.160156 856.648438 C 1855.289062 856.027344 1858.429688 855.480469 1861.582031 855.015625 C 1864.738281 854.546875 1867.902344 854.15625 1871.074219 853.84375 C 1874.25 853.53125 1877.429688 853.296875 1880.613281 853.140625 C 1883.800781 852.984375 1886.988281 852.90625 1890.175781 852.90625 C 1893.363281 852.90625 1896.550781 852.984375 1899.738281 853.140625 C 1902.921875 853.296875 1906.101562 853.53125 1909.277344 853.84375 C 1912.449219 854.15625 1915.613281 854.546875 1918.769531 855.015625 C 1921.921875 855.480469 1925.0625 856.027344 1928.191406 856.648438 C 1931.320312 857.269531 1934.429688 857.96875 1937.523438 858.742188 C 1940.617188 859.519531 1943.691406 860.367188 1946.742188 861.292969 C 1949.792969 862.21875 1952.820312 863.21875 1955.824219 864.292969 C 1958.824219 865.367188 1961.800781 866.511719 1964.746094 867.734375 C 1967.691406 868.953125 1970.605469 870.242188 1973.488281 871.605469 C 1976.371094 872.96875 1979.21875 874.402344 1982.035156 875.90625 C 1984.847656 877.40625 1987.621094 878.980469 1990.355469 880.617188 C 1993.089844 882.257812 1995.785156 883.960938 1998.433594 885.730469 C 2001.085938 887.503906 2003.695312 889.335938 2006.253906 891.238281 C 2008.816406 893.136719 2011.328125 895.097656 2013.796875 897.117188 C 2016.261719 899.140625 2018.675781 901.222656 2021.039062 903.363281 C 2023.402344 905.503906 2025.710938 907.699219 2027.964844 909.953125 C 2030.21875 912.207031 2032.417969 914.515625 2034.558594 916.878906 C 2036.699219 919.242188 2038.785156 921.652344 2040.804688 924.117188 C 2042.828125 926.582031 2044.792969 929.09375 2046.691406 931.652344 C 2048.589844 934.214844 2050.425781 936.820312 2052.199219 939.46875 C 2053.96875 942.121094 2055.675781 944.8125 2057.316406 947.546875 C 2058.953125 950.28125 2060.527344 953.054688 2062.027344 955.867188 C 2063.53125 958.675781 2064.964844 961.523438 2066.328125 964.40625 C 2067.691406 967.285156 2068.984375 970.199219 2070.207031 973.144531 C 2071.425781 976.089844 2072.574219 979.0625 2073.648438 982.0625 C 2074.722656 985.066406 2075.722656 988.089844 2076.648438 991.140625 C 2077.574219 994.191406 2078.421875 997.261719 2079.199219 1000.355469 C 2079.972656 1003.449219 2080.671875 1006.558594 2081.292969 1009.683594 C 2081.917969 1012.808594 2082.460938 1015.949219 2082.929688 1019.101562 C 2083.398438 1022.253906 2083.789062 1025.417969 2084.101562 1028.589844 C 2084.414062 1031.761719 2084.648438 1034.941406 2084.804688 1038.125 C 2084.960938 1041.308594 2085.039062 1044.496094 2085.039062 1047.683594 Z M 2182.46875 1242.457031 C 2182.46875 1242.988281 2182.445312 1243.519531 2182.390625 1244.046875 C 2182.339844 1244.578125 2182.261719 1245.101562 2182.15625 1245.625 C 2182.054688 1246.144531 2181.925781 1246.660156 2181.769531 1247.167969 C 2181.617188 1247.679688 2181.4375 1248.175781 2181.234375 1248.667969 C 2181.03125 1249.160156 2180.804688 1249.640625 2180.550781 1250.109375 C 2180.300781 1250.578125 2180.027344 1251.03125 2179.734375 1251.476562 C 2179.4375 1251.917969 2179.121094 1252.34375 2178.785156 1252.753906 C 2178.445312 1253.164062 2178.089844 1253.558594 2177.714844 1253.933594 C 2177.335938 1254.3125 2176.945312 1254.667969 2176.53125 1255.003906 C 2176.121094 1255.339844 2175.695312 1255.65625 2175.253906 1255.953125 C 2174.808594 1256.25 2174.355469 1256.523438 2173.886719 1256.773438 C 2173.417969 1257.023438 2172.9375 1257.25 2172.445312 1257.453125 C 2171.953125 1257.65625 2171.453125 1257.835938 2170.945312 1257.988281 C 2170.4375 1258.144531 2169.921875 1258.273438 2169.398438 1258.375 C 2168.878906 1258.480469 2168.351562 1258.558594 2167.824219 1258.609375 C 2167.292969 1258.664062 2166.761719 1258.6875 2166.230469 1258.6875 L 2112.15625 1258.6875 C 2115.6875 1242.648438 2117.472656 1226.417969 2117.515625 1209.996094 L 2117.515625 1128.839844 L 2166.230469 1128.839844 C 2166.761719 1128.839844 2167.292969 1128.863281 2167.824219 1128.917969 C 2168.351562 1128.96875 2168.878906 1129.046875 2169.398438 1129.148438 C 2169.921875 1129.253906 2170.4375 1129.382812 2170.945312 1129.539062 C 2171.453125 1129.691406 2171.953125 1129.871094 2172.445312 1130.074219 C 2172.9375 1130.277344 2173.417969 1130.503906 2173.886719 1130.753906 C 2174.355469 1131.003906 2174.808594 1131.277344 2175.253906 1131.574219 C 2175.695312 1131.867188 2176.121094 1132.183594 2176.53125 1132.523438 C 2176.945312 1132.859375 2177.335938 1133.214844 2177.714844 1133.59375 C 2178.089844 1133.96875 2178.445312 1134.363281 2178.785156 1134.773438 C 2179.121094 1135.183594 2179.4375 1135.609375 2179.734375 1136.050781 C 2180.027344 1136.492188 2180.300781 1136.949219 2180.550781 1137.417969 C 2180.804688 1137.886719 2181.03125 1138.367188 2181.234375 1138.859375 C 2181.4375 1139.347656 2181.617188 1139.847656 2181.769531 1140.359375 C 2181.925781 1140.867188 2182.054688 1141.382812 2182.15625 1141.902344 C 2182.261719 1142.425781 2182.339844 1142.949219 2182.390625 1143.480469 C 2182.445312 1144.007812 2182.46875 1144.539062 2182.46875 1145.070312 Z M 1890.175781 787.980469 C 1894.429688 787.980469 1898.675781 788.085938 1902.925781 788.292969 C 1907.171875 788.503906 1911.410156 788.816406 1915.640625 789.230469 C 1919.875 789.648438 1924.09375 790.167969 1928.296875 790.792969 C 1932.503906 791.414062 1936.691406 792.140625 1940.863281 792.972656 C 1945.035156 793.800781 1949.179688 794.730469 1953.304688 795.765625 C 1957.429688 796.796875 1961.527344 797.929688 1965.597656 799.164062 C 1969.664062 800.398438 1973.703125 801.730469 1977.707031 803.164062 C 1981.707031 804.59375 1985.675781 806.125 1989.601562 807.75 C 1993.53125 809.375 1997.417969 811.097656 2001.261719 812.914062 C 2005.105469 814.734375 2008.902344 816.644531 2012.652344 818.644531 C 2016.402344 820.648438 2020.101562 822.742188 2023.75 824.929688 C 2027.394531 827.113281 2030.988281 829.386719 2034.523438 831.75 C 2038.058594 834.109375 2041.53125 836.554688 2044.949219 839.089844 C 2048.363281 841.621094 2051.714844 844.234375 2055 846.929688 C 2058.289062 849.625 2061.507812 852.402344 2064.65625 855.257812 C 2067.808594 858.109375 2070.886719 861.039062 2073.894531 864.046875 C 2076.902344 867.050781 2079.832031 870.128906 2082.6875 873.277344 C 2085.542969 876.425781 2088.320312 879.644531 2091.015625 882.929688 C 2093.714844 886.214844 2096.328125 889.566406 2098.863281 892.976562 C 2101.394531 896.390625 2103.84375 899.867188 2106.207031 903.398438 C 2108.566406 906.933594 2110.84375 910.523438 2113.027344 914.167969 C 2115.214844 917.816406 2117.308594 921.511719 2119.3125 925.261719 C 2121.316406 929.007812 2123.230469 932.804688 2125.046875 936.644531 C 2126.863281 940.488281 2128.585938 944.371094 2130.214844 948.296875 C 2131.84375 952.226562 2133.371094 956.191406 2134.804688 960.191406 C 2136.238281 964.191406 2137.570312 968.226562 2138.804688 972.292969 C 2140.039062 976.363281 2141.171875 980.457031 2142.207031 984.578125 C 2143.238281 988.703125 2144.171875 992.847656 2145 997.015625 C 2145.828125 1001.183594 2146.554688 1005.371094 2147.179688 1009.574219 C 2147.804688 1013.78125 2148.324219 1017.996094 2148.742188 1022.226562 C 2149.160156 1026.457031 2149.472656 1030.695312 2149.679688 1034.9375 C 2149.886719 1039.183594 2149.992188 1043.433594 2149.992188 1047.683594 L 2149.992188 1096.375 L 2117.515625 1096.375 L 2117.515625 1047.683594 C 2117.515625 1043.964844 2117.425781 1040.246094 2117.242188 1036.53125 C 2117.058594 1032.816406 2116.785156 1029.109375 2116.421875 1025.410156 C 2116.054688 1021.707031 2115.601562 1018.019531 2115.054688 1014.339844 C 2114.507812 1010.660156 2113.871094 1006.996094 2113.148438 1003.351562 C 2112.421875 999.703125 2111.605469 996.074219 2110.703125 992.46875 C 2109.796875 988.859375 2108.804688 985.277344 2107.726562 981.71875 C 2106.644531 978.160156 2105.480469 974.628906 2104.226562 971.128906 C 2102.972656 967.625 2101.632812 964.15625 2100.210938 960.722656 C 2098.785156 957.285156 2097.277344 953.886719 2095.6875 950.523438 C 2094.097656 947.164062 2092.425781 943.84375 2090.671875 940.5625 C 2088.917969 937.28125 2087.085938 934.046875 2085.171875 930.859375 C 2083.257812 927.667969 2081.269531 924.527344 2079.203125 921.433594 C 2077.132812 918.34375 2074.992188 915.304688 2072.777344 912.316406 C 2070.558594 909.328125 2068.273438 906.398438 2065.910156 903.523438 C 2063.550781 900.648438 2061.121094 897.832031 2058.625 895.078125 C 2056.125 892.324219 2053.558594 889.628906 2050.929688 887 C 2048.296875 884.371094 2045.605469 881.808594 2042.847656 879.308594 C 2040.089844 876.8125 2037.273438 874.382812 2034.398438 872.023438 C 2031.523438 869.664062 2028.589844 867.378906 2025.601562 865.164062 C 2022.613281 862.945312 2019.574219 860.804688 2016.480469 858.742188 C 2013.386719 856.675781 2010.242188 854.683594 2007.050781 852.773438 C 2003.859375 850.863281 2000.625 849.027344 1997.34375 847.277344 C 1994.0625 845.523438 1990.738281 843.851562 1987.375 842.261719 C 1984.011719 840.671875 1980.613281 839.164062 1977.175781 837.742188 C 1973.738281 836.316406 1970.265625 834.980469 1966.765625 833.726562 C 1963.261719 832.472656 1959.730469 831.308594 1956.167969 830.230469 C 1952.609375 829.148438 1949.023438 828.15625 1945.414062 827.253906 C 1941.804688 826.351562 1938.175781 825.535156 1934.527344 824.808594 C 1930.878906 824.085938 1927.214844 823.449219 1923.535156 822.902344 C 1919.851562 822.359375 1916.160156 821.902344 1912.457031 821.539062 C 1908.757812 821.171875 1905.046875 820.898438 1901.332031 820.71875 C 1897.613281 820.535156 1893.894531 820.445312 1890.175781 820.445312 C 1886.453125 820.445312 1882.738281 820.535156 1879.019531 820.71875 C 1875.304688 820.898438 1871.59375 821.171875 1867.890625 821.539062 C 1864.191406 821.902344 1860.5 822.359375 1856.816406 822.902344 C 1853.136719 823.449219 1849.472656 824.085938 1845.824219 824.808594 C 1842.175781 825.535156 1838.546875 826.351562 1834.9375 827.253906 C 1831.328125 828.15625 1827.742188 829.148438 1824.183594 830.230469 C 1820.621094 831.308594 1817.089844 832.472656 1813.585938 833.726562 C 1810.085938 834.980469 1806.613281 836.316406 1803.175781 837.742188 C 1799.738281 839.164062 1796.339844 840.671875 1792.976562 842.261719 C 1789.613281 843.851562 1786.289062 845.523438 1783.007812 847.277344 C 1779.726562 849.027344 1776.492188 850.863281 1773.300781 852.773438 C 1770.109375 854.683594 1766.964844 856.675781 1763.871094 858.742188 C 1760.777344 860.804688 1757.738281 862.945312 1754.75 865.164062 C 1751.761719 867.378906 1748.828125 869.664062 1745.953125 872.023438 C 1743.078125 874.382812 1740.261719 876.8125 1737.503906 879.308594 C 1734.746094 881.808594 1732.054688 884.371094 1729.421875 887 C 1726.792969 889.628906 1724.226562 892.324219 1721.726562 895.078125 C 1719.230469 897.832031 1716.800781 900.648438 1714.441406 903.523438 C 1712.078125 906.398438 1709.789062 909.328125 1707.574219 912.316406 C 1705.359375 915.304688 1703.214844 918.34375 1701.148438 921.433594 C 1699.082031 924.527344 1697.09375 927.667969 1695.179688 930.859375 C 1693.265625 934.046875 1691.433594 937.28125 1689.679688 940.5625 C 1687.925781 943.84375 1686.253906 947.164062 1684.664062 950.523438 C 1683.070312 953.886719 1681.566406 957.285156 1680.140625 960.722656 C 1678.71875 964.15625 1677.378906 967.625 1676.125 971.128906 C 1674.871094 974.628906 1673.707031 978.160156 1672.625 981.71875 C 1671.546875 985.277344 1670.554688 988.859375 1669.648438 992.46875 C 1668.746094 996.074219 1667.929688 999.703125 1667.203125 1003.351562 C 1666.476562 1006.996094 1665.84375 1010.660156 1665.296875 1014.339844 C 1664.75 1018.019531 1664.296875 1021.707031 1663.929688 1025.410156 C 1663.566406 1029.109375 1663.292969 1032.816406 1663.109375 1036.53125 C 1662.925781 1040.246094 1662.835938 1043.964844 1662.835938 1047.683594 L 1662.835938 1096.375 L 1630.359375 1096.375 L 1630.359375 1047.683594 C 1630.359375 1043.433594 1630.464844 1039.183594 1630.671875 1034.9375 C 1630.878906 1030.695312 1631.191406 1026.457031 1631.609375 1022.226562 C 1632.027344 1017.996094 1632.546875 1013.78125 1633.171875 1009.574219 C 1633.792969 1005.371094 1634.523438 1001.183594 1635.351562 997.015625 C 1636.179688 992.847656 1637.113281 988.703125 1638.144531 984.578125 C 1639.179688 980.457031 1640.3125 976.363281 1641.546875 972.292969 C 1642.78125 968.226562 1644.113281 964.191406 1645.546875 960.191406 C 1646.980469 956.191406 1648.507812 952.226562 1650.136719 948.296875 C 1651.761719 944.371094 1653.484375 940.488281 1655.304688 936.644531 C 1657.121094 932.804688 1659.035156 929.007812 1661.039062 925.261719 C 1663.042969 921.511719 1665.136719 917.816406 1667.324219 914.167969 C 1669.507812 910.523438 1671.785156 906.933594 1674.144531 903.398438 C 1676.507812 899.867188 1678.957031 896.390625 1681.488281 892.976562 C 1684.023438 889.566406 1686.636719 886.214844 1689.335938 882.929688 C 1692.03125 879.644531 1694.808594 876.425781 1697.664062 873.277344 C 1700.519531 870.128906 1703.449219 867.050781 1706.457031 864.046875 C 1709.464844 861.039062 1712.542969 858.109375 1715.691406 855.257812 C 1718.84375 852.402344 1722.0625 849.625 1725.351562 846.929688 C 1728.636719 844.234375 1731.988281 841.621094 1735.402344 839.089844 C 1738.816406 836.554688 1742.292969 834.109375 1745.828125 831.75 C 1749.363281 829.386719 1752.957031 827.113281 1756.601562 824.929688 C 1760.25 822.742188 1763.949219 820.648438 1767.699219 818.644531 C 1771.449219 816.644531 1775.246094 814.734375 1779.089844 812.914062 C 1782.933594 811.097656 1786.820312 809.375 1790.75 807.75 C 1794.675781 806.125 1798.640625 804.59375 1802.644531 803.164062 C 1806.648438 801.730469 1810.6875 800.398438 1814.753906 799.164062 C 1818.824219 797.929688 1822.921875 796.796875 1827.046875 795.765625 C 1831.171875 794.730469 1835.316406 793.800781 1839.488281 792.972656 C 1843.660156 792.140625 1847.847656 791.414062 1852.050781 790.792969 C 1856.257812 790.167969 1860.476562 789.648438 1864.710938 789.230469 C 1868.941406 788.816406 1873.179688 788.503906 1877.425781 788.292969 C 1881.675781 788.085938 1885.921875 787.980469 1890.175781 787.980469 Z M 1614.121094 1258.6875 C 1613.589844 1258.6875 1613.058594 1258.664062 1612.527344 1258.609375 C 1612 1258.558594 1611.472656 1258.480469 1610.953125 1258.375 C 1610.429688 1258.273438 1609.914062 1258.144531 1609.40625 1257.988281 C 1608.898438 1257.835938 1608.398438 1257.65625 1607.90625 1257.453125 C 1607.414062 1257.25 1606.933594 1257.023438 1606.464844 1256.773438 C 1605.996094 1256.523438 1605.539062 1256.25 1605.097656 1255.953125 C 1604.65625 1255.65625 1604.230469 1255.339844 1603.820312 1255.003906 C 1603.40625 1254.667969 1603.015625 1254.3125 1602.636719 1253.933594 C 1602.261719 1253.558594 1601.90625 1253.164062 1601.566406 1252.753906 C 1601.230469 1252.34375 1600.914062 1251.917969 1600.617188 1251.476562 C 1600.324219 1251.03125 1600.050781 1250.578125 1599.800781 1250.109375 C 1599.546875 1249.640625 1599.320312 1249.160156 1599.117188 1248.667969 C 1598.914062 1248.175781 1598.734375 1247.679688 1598.582031 1247.167969 C 1598.425781 1246.660156 1598.296875 1246.144531 1598.195312 1245.625 C 1598.089844 1245.101562 1598.011719 1244.578125 1597.960938 1244.046875 C 1597.90625 1243.519531 1597.882812 1242.988281 1597.882812 1242.457031 L 1597.882812 1145.070312 C 1597.882812 1144.539062 1597.90625 1144.007812 1597.960938 1143.480469 C 1598.011719 1142.949219 1598.089844 1142.425781 1598.195312 1141.902344 C 1598.296875 1141.382812 1598.425781 1140.867188 1598.582031 1140.359375 C 1598.734375 1139.847656 1598.914062 1139.347656 1599.117188 1138.859375 C 1599.320312 1138.367188 1599.546875 1137.886719 1599.800781 1137.417969 C 1600.050781 1136.949219 1600.324219 1136.492188 1600.617188 1136.050781 C 1600.914062 1135.609375 1601.230469 1135.183594 1601.566406 1134.773438 C 1601.90625 1134.363281 1602.261719 1133.96875 1602.636719 1133.59375 C 1603.015625 1133.214844 1603.40625 1132.859375 1603.820312 1132.523438 C 1604.230469 1132.183594 1604.65625 1131.871094 1605.097656 1131.574219 C 1605.539062 1131.277344 1605.996094 1131.003906 1606.464844 1130.753906 C 1606.933594 1130.503906 1607.414062 1130.277344 1607.90625 1130.074219 C 1608.398438 1129.871094 1608.898438 1129.691406 1609.40625 1129.539062 C 1609.914062 1129.382812 1610.429688 1129.253906 1610.953125 1129.148438 C 1611.472656 1129.046875 1612 1128.96875 1612.527344 1128.917969 C 1613.058594 1128.863281 1613.589844 1128.839844 1614.121094 1128.839844 L 1662.835938 1128.839844 L 1662.835938 1209.996094 C 1662.878906 1226.417969 1664.664062 1242.648438 1668.195312 1258.6875 Z M 1695.3125 1209.996094 L 1695.3125 1128.839844 L 1746.789062 1128.839844 C 1750.21875 1128.828125 1753.644531 1128.722656 1757.066406 1128.519531 C 1760.488281 1128.320312 1763.902344 1128.023438 1767.308594 1127.632812 C 1770.714844 1127.242188 1774.105469 1126.753906 1777.484375 1126.175781 C 1780.863281 1125.59375 1784.222656 1124.921875 1787.566406 1124.152344 C 1790.90625 1123.386719 1794.222656 1122.527344 1797.519531 1121.574219 C 1800.8125 1120.621094 1804.074219 1119.578125 1807.3125 1118.445312 C 1810.546875 1117.3125 1813.746094 1116.089844 1816.914062 1114.777344 C 1820.082031 1113.464844 1823.210938 1112.066406 1826.300781 1110.578125 C 1829.386719 1109.09375 1832.433594 1107.523438 1835.433594 1105.867188 C 1838.4375 1104.210938 1841.390625 1102.472656 1844.296875 1100.652344 C 1847.199219 1098.832031 1850.050781 1096.933594 1852.851562 1094.953125 C 1855.648438 1092.976562 1858.390625 1090.917969 1861.074219 1088.789062 C 1863.757812 1086.65625 1866.382812 1084.453125 1868.945312 1082.175781 C 1871.503906 1079.898438 1874 1077.550781 1876.433594 1075.132812 C 1878.863281 1072.714844 1881.222656 1070.234375 1883.515625 1067.683594 C 1885.808594 1065.136719 1888.027344 1062.527344 1890.175781 1059.855469 C 1892.324219 1062.527344 1894.542969 1065.136719 1896.835938 1067.683594 C 1899.125 1070.234375 1901.488281 1072.714844 1903.917969 1075.132812 C 1906.351562 1077.550781 1908.847656 1079.898438 1911.40625 1082.175781 C 1913.96875 1084.453125 1916.589844 1086.65625 1919.277344 1088.789062 C 1921.960938 1090.917969 1924.703125 1092.976562 1927.5 1094.953125 C 1930.300781 1096.933594 1933.152344 1098.832031 1936.054688 1100.652344 C 1938.960938 1102.472656 1941.914062 1104.210938 1944.914062 1105.867188 C 1947.917969 1107.523438 1950.964844 1109.09375 1954.050781 1110.578125 C 1957.140625 1112.066406 1960.269531 1113.464844 1963.4375 1114.777344 C 1966.605469 1116.089844 1969.804688 1117.3125 1973.039062 1118.445312 C 1976.277344 1119.578125 1979.539062 1120.621094 1982.832031 1121.574219 C 1986.125 1122.527344 1989.445312 1123.386719 1992.785156 1124.152344 C 1996.128906 1124.921875 1999.488281 1125.59375 2002.867188 1126.175781 C 2006.246094 1126.753906 2009.636719 1127.242188 2013.042969 1127.632812 C 2016.449219 1128.023438 2019.863281 1128.320312 2023.285156 1128.519531 C 2026.707031 1128.722656 2030.132812 1128.828125 2033.5625 1128.839844 L 2085.039062 1128.839844 L 2085.039062 1209.996094 C 2085.019531 1220.132812 2084.210938 1230.207031 2082.617188 1240.21875 C 2081.023438 1250.230469 2078.664062 1260.054688 2075.535156 1269.699219 C 2072.40625 1279.339844 2068.550781 1288.683594 2063.960938 1297.722656 C 2059.375 1306.765625 2054.113281 1315.394531 2048.175781 1323.613281 L 1935.96875 1323.613281 C 1935.652344 1322.71875 1935.308594 1321.835938 1934.941406 1320.964844 C 1934.574219 1320.089844 1934.183594 1319.226562 1933.765625 1318.378906 C 1933.347656 1317.527344 1932.902344 1316.6875 1932.4375 1315.863281 C 1931.96875 1315.039062 1931.480469 1314.230469 1930.964844 1313.433594 C 1930.449219 1312.636719 1929.914062 1311.855469 1929.355469 1311.089844 C 1928.792969 1310.328125 1928.210938 1309.578125 1927.609375 1308.847656 C 1927.003906 1308.117188 1926.378906 1307.402344 1925.734375 1306.710938 C 1925.089844 1306.015625 1924.425781 1305.339844 1923.742188 1304.683594 C 1923.054688 1304.027344 1922.351562 1303.394531 1921.632812 1302.777344 C 1920.910156 1302.164062 1920.171875 1301.570312 1919.414062 1301 C 1918.65625 1300.429688 1917.886719 1299.878906 1917.097656 1299.351562 C 1916.308594 1298.828125 1915.503906 1298.324219 1914.6875 1297.84375 C 1913.871094 1297.363281 1913.039062 1296.910156 1912.195312 1296.480469 C 1911.351562 1296.046875 1910.492188 1295.640625 1909.625 1295.261719 C 1908.757812 1294.878906 1907.878906 1294.523438 1906.992188 1294.195312 C 1906.101562 1293.863281 1905.203125 1293.5625 1904.296875 1293.285156 C 1903.390625 1293.007812 1902.476562 1292.753906 1901.554688 1292.53125 C 1900.632812 1292.308594 1899.707031 1292.109375 1898.773438 1291.941406 C 1897.84375 1291.769531 1896.90625 1291.628906 1895.964844 1291.511719 C 1895.023438 1291.398438 1894.078125 1291.308594 1893.132812 1291.25 C 1892.1875 1291.1875 1891.238281 1291.15625 1890.292969 1291.152344 C 1889.34375 1291.148438 1888.394531 1291.167969 1887.449219 1291.21875 C 1886.503906 1291.269531 1885.558594 1291.347656 1884.617188 1291.453125 C 1883.671875 1291.558594 1882.734375 1291.691406 1881.800781 1291.851562 C 1880.867188 1292.011719 1879.9375 1292.199219 1879.015625 1292.414062 C 1878.089844 1292.628906 1877.175781 1292.871094 1876.265625 1293.136719 C 1875.355469 1293.40625 1874.453125 1293.699219 1873.5625 1294.019531 C 1872.667969 1294.339844 1871.789062 1294.6875 1870.914062 1295.058594 C 1870.042969 1295.433594 1869.183594 1295.828125 1868.335938 1296.25 C 1867.484375 1296.671875 1866.648438 1297.121094 1865.828125 1297.589844 C 1865.003906 1298.0625 1864.195312 1298.554688 1863.402344 1299.074219 C 1862.609375 1299.59375 1861.832031 1300.132812 1861.066406 1300.699219 C 1860.304688 1301.261719 1859.5625 1301.847656 1858.832031 1302.453125 C 1858.105469 1303.058594 1857.394531 1303.6875 1856.703125 1304.335938 C 1856.011719 1304.984375 1855.339844 1305.652344 1854.6875 1306.339844 C 1854.035156 1307.027344 1853.402344 1307.734375 1852.792969 1308.460938 C 1852.183594 1309.183594 1851.59375 1309.925781 1851.023438 1310.683594 C 1850.457031 1311.445312 1849.910156 1312.21875 1849.390625 1313.007812 C 1848.867188 1313.800781 1848.367188 1314.605469 1847.890625 1315.425781 C 1847.417969 1316.246094 1846.964844 1317.078125 1846.539062 1317.925781 C 1846.113281 1318.769531 1845.710938 1319.628906 1845.332031 1320.5 C 1844.957031 1321.367188 1844.605469 1322.246094 1844.28125 1323.136719 C 1843.953125 1324.027344 1843.65625 1324.925781 1843.382812 1325.835938 C 1843.109375 1326.742188 1842.863281 1327.65625 1842.644531 1328.578125 C 1842.425781 1329.5 1842.234375 1330.429688 1842.066406 1331.363281 C 1841.902344 1332.296875 1841.765625 1333.230469 1841.65625 1334.171875 C 1841.542969 1335.113281 1841.460938 1336.058594 1841.40625 1337.003906 C 1841.351562 1337.949219 1841.324219 1338.898438 1841.324219 1339.84375 C 1841.324219 1340.792969 1841.351562 1341.738281 1841.40625 1342.6875 C 1841.460938 1343.632812 1841.542969 1344.574219 1841.65625 1345.515625 C 1841.765625 1346.457031 1841.902344 1347.394531 1842.066406 1348.328125 C 1842.234375 1349.261719 1842.425781 1350.1875 1842.644531 1351.109375 C 1842.863281 1352.03125 1843.109375 1352.949219 1843.382812 1353.855469 C 1843.65625 1354.761719 1843.953125 1355.660156 1844.28125 1356.550781 C 1844.605469 1357.441406 1844.957031 1358.324219 1845.332031 1359.191406 C 1845.710938 1360.0625 1846.113281 1360.917969 1846.539062 1361.765625 C 1846.964844 1362.613281 1847.417969 1363.445312 1847.890625 1364.265625 C 1848.367188 1365.085938 1848.867188 1365.890625 1849.390625 1366.679688 C 1849.910156 1367.472656 1850.457031 1368.246094 1851.023438 1369.003906 C 1851.59375 1369.765625 1852.183594 1370.507812 1852.792969 1371.230469 C 1853.402344 1371.957031 1854.035156 1372.660156 1854.6875 1373.347656 C 1855.339844 1374.039062 1856.011719 1374.707031 1856.703125 1375.355469 C 1857.394531 1376.003906 1858.105469 1376.628906 1858.832031 1377.238281 C 1859.5625 1377.84375 1860.304688 1378.429688 1861.066406 1378.992188 C 1861.832031 1379.554688 1862.609375 1380.097656 1863.402344 1380.617188 C 1864.195312 1381.132812 1865.003906 1381.628906 1865.828125 1382.097656 C 1866.648438 1382.570312 1867.484375 1383.015625 1868.335938 1383.4375 C 1869.183594 1383.863281 1870.042969 1384.257812 1870.914062 1384.628906 C 1871.789062 1385.003906 1872.667969 1385.347656 1873.5625 1385.667969 C 1874.453125 1385.988281 1875.355469 1386.285156 1876.265625 1386.550781 C 1877.175781 1386.820312 1878.089844 1387.0625 1879.015625 1387.277344 C 1879.9375 1387.488281 1880.867188 1387.675781 1881.800781 1387.835938 C 1882.734375 1388 1883.671875 1388.132812 1884.617188 1388.238281 C 1885.558594 1388.34375 1886.503906 1388.417969 1887.449219 1388.46875 C 1888.394531 1388.519531 1889.34375 1388.542969 1890.292969 1388.539062 C 1891.238281 1388.535156 1892.1875 1388.5 1893.132812 1388.441406 C 1894.078125 1388.378906 1895.023438 1388.292969 1895.964844 1388.175781 C 1896.90625 1388.0625 1897.84375 1387.917969 1898.773438 1387.75 C 1899.707031 1387.578125 1900.632812 1387.382812 1901.554688 1387.160156 C 1902.476562 1386.933594 1903.390625 1386.683594 1904.296875 1386.40625 C 1905.203125 1386.128906 1906.101562 1385.824219 1906.992188 1385.496094 C 1907.878906 1385.167969 1908.757812 1384.8125 1909.625 1384.429688 C 1910.492188 1384.046875 1911.351562 1383.640625 1912.195312 1383.210938 C 1913.039062 1382.78125 1913.871094 1382.324219 1914.6875 1381.847656 C 1915.503906 1381.367188 1916.308594 1380.863281 1917.097656 1380.335938 C 1917.886719 1379.808594 1918.65625 1379.261719 1919.414062 1378.691406 C 1920.171875 1378.117188 1920.910156 1377.527344 1921.632812 1376.910156 C 1922.351562 1376.296875 1923.054688 1375.660156 1923.742188 1375.003906 C 1924.425781 1374.351562 1925.089844 1373.675781 1925.734375 1372.980469 C 1926.378906 1372.285156 1927.003906 1371.574219 1927.609375 1370.84375 C 1928.210938 1370.113281 1928.792969 1369.363281 1929.355469 1368.597656 C 1929.914062 1367.835938 1930.449219 1367.054688 1930.964844 1366.257812 C 1931.480469 1365.460938 1931.96875 1364.652344 1932.4375 1363.828125 C 1932.902344 1363 1933.347656 1362.164062 1933.765625 1361.3125 C 1934.183594 1360.460938 1934.574219 1359.601562 1934.941406 1358.726562 C 1935.308594 1357.851562 1935.652344 1356.96875 1935.96875 1356.078125 L 2018.621094 1356.078125 C 2015.128906 1359.136719 2011.527344 1362.070312 2007.824219 1364.875 C 2004.117188 1367.679688 2000.320312 1370.347656 1996.421875 1372.882812 C 1992.527344 1375.414062 1988.546875 1377.804688 1984.480469 1380.054688 C 1980.414062 1382.300781 1976.269531 1384.402344 1972.054688 1386.351562 C 1967.835938 1388.304688 1963.554688 1390.105469 1959.210938 1391.75 C 1954.863281 1393.394531 1950.464844 1394.882812 1946.011719 1396.214844 C 1941.558594 1397.546875 1937.066406 1398.714844 1932.527344 1399.726562 C 1927.992188 1400.734375 1923.425781 1401.582031 1918.828125 1402.265625 C 1914.234375 1402.949219 1909.617188 1403.464844 1904.984375 1403.820312 C 1900.351562 1404.171875 1895.710938 1404.359375 1891.0625 1404.378906 C 1886.414062 1404.402344 1881.773438 1404.257812 1877.136719 1403.945312 C 1872.5 1403.632812 1867.878906 1403.160156 1863.277344 1402.515625 C 1858.675781 1401.875 1854.101562 1401.070312 1849.554688 1400.101562 C 1845.011719 1399.132812 1840.503906 1398.003906 1836.039062 1396.714844 C 1831.578125 1395.425781 1827.164062 1393.976562 1822.804688 1392.371094 C 1818.441406 1390.765625 1814.144531 1389.003906 1809.910156 1387.089844 C 1805.675781 1385.175781 1801.515625 1383.117188 1797.425781 1380.90625 C 1793.339844 1378.695312 1789.335938 1376.339844 1785.417969 1373.84375 C 1781.5 1371.34375 1777.675781 1368.710938 1773.945312 1365.941406 C 1770.214844 1363.167969 1766.589844 1360.269531 1763.066406 1357.238281 C 1759.542969 1354.210938 1756.136719 1351.058594 1752.839844 1347.785156 C 1749.542969 1344.507812 1746.367188 1341.121094 1743.3125 1337.621094 C 1740.257812 1334.121094 1737.332031 1330.515625 1734.535156 1326.804688 C 1731.738281 1323.09375 1729.078125 1319.289062 1726.554688 1315.386719 C 1724.03125 1311.488281 1721.648438 1307.503906 1719.410156 1303.433594 C 1717.171875 1299.363281 1715.082031 1295.214844 1713.140625 1290.996094 C 1711.199219 1286.777344 1709.410156 1282.492188 1707.773438 1278.144531 C 1706.140625 1273.796875 1704.660156 1269.394531 1703.339844 1264.941406 C 1702.019531 1260.488281 1700.863281 1255.992188 1699.863281 1251.453125 C 1698.863281 1246.917969 1698.03125 1242.351562 1697.359375 1237.753906 C 1696.6875 1233.160156 1696.179688 1228.542969 1695.839844 1223.910156 C 1695.496094 1219.277344 1695.324219 1214.640625 1695.3125 1209.996094 Z M 1906.414062 1339.84375 C 1906.414062 1340.375 1906.386719 1340.90625 1906.335938 1341.4375 C 1906.285156 1341.964844 1906.207031 1342.492188 1906.101562 1343.011719 C 1906 1343.53125 1905.871094 1344.046875 1905.714844 1344.558594 C 1905.5625 1345.066406 1905.382812 1345.566406 1905.179688 1346.054688 C 1904.976562 1346.546875 1904.746094 1347.027344 1904.496094 1347.496094 C 1904.246094 1347.964844 1903.972656 1348.421875 1903.675781 1348.863281 C 1903.382812 1349.304688 1903.066406 1349.730469 1902.726562 1350.140625 C 1902.390625 1350.554688 1902.035156 1350.945312 1901.65625 1351.324219 C 1901.28125 1351.699219 1900.886719 1352.054688 1900.476562 1352.390625 C 1900.066406 1352.730469 1899.640625 1353.046875 1899.195312 1353.339844 C 1898.753906 1353.636719 1898.300781 1353.910156 1897.832031 1354.160156 C 1897.363281 1354.410156 1896.882812 1354.636719 1896.390625 1354.839844 C 1895.898438 1355.042969 1895.398438 1355.222656 1894.890625 1355.378906 C 1894.378906 1355.53125 1893.867188 1355.660156 1893.34375 1355.765625 C 1892.820312 1355.867188 1892.296875 1355.945312 1891.765625 1356 C 1891.238281 1356.050781 1890.707031 1356.078125 1890.175781 1356.078125 C 1889.644531 1356.078125 1889.113281 1356.050781 1888.585938 1356 C 1888.054688 1355.945312 1887.53125 1355.867188 1887.007812 1355.765625 C 1886.484375 1355.660156 1885.972656 1355.53125 1885.460938 1355.378906 C 1884.953125 1355.222656 1884.453125 1355.042969 1883.960938 1354.839844 C 1883.46875 1354.636719 1882.988281 1354.410156 1882.519531 1354.160156 C 1882.050781 1353.910156 1881.597656 1353.636719 1881.152344 1353.339844 C 1880.710938 1353.046875 1880.285156 1352.730469 1879.875 1352.390625 C 1879.464844 1352.054688 1879.070312 1351.699219 1878.691406 1351.324219 C 1878.316406 1350.945312 1877.960938 1350.554688 1877.625 1350.140625 C 1877.285156 1349.730469 1876.96875 1349.304688 1876.671875 1348.863281 C 1876.378906 1348.421875 1876.105469 1347.964844 1875.855469 1347.496094 C 1875.605469 1347.027344 1875.375 1346.546875 1875.171875 1346.054688 C 1874.96875 1345.566406 1874.789062 1345.066406 1874.636719 1344.558594 C 1874.480469 1344.046875 1874.351562 1343.53125 1874.25 1343.011719 C 1874.144531 1342.492188 1874.066406 1341.964844 1874.015625 1341.4375 C 1873.964844 1340.90625 1873.9375 1340.375 1873.9375 1339.84375 C 1873.9375 1339.3125 1873.964844 1338.785156 1874.015625 1338.253906 C 1874.066406 1337.726562 1874.144531 1337.199219 1874.25 1336.679688 C 1874.351562 1336.15625 1874.480469 1335.640625 1874.636719 1335.132812 C 1874.789062 1334.625 1874.96875 1334.125 1875.171875 1333.632812 C 1875.375 1333.140625 1875.605469 1332.664062 1875.855469 1332.195312 C 1876.105469 1331.726562 1876.378906 1331.269531 1876.671875 1330.828125 C 1876.96875 1330.386719 1877.285156 1329.960938 1877.625 1329.546875 C 1877.960938 1329.136719 1878.316406 1328.742188 1878.691406 1328.367188 C 1879.070312 1327.992188 1879.464844 1327.636719 1879.875 1327.296875 C 1880.285156 1326.960938 1880.710938 1326.644531 1881.152344 1326.347656 C 1881.597656 1326.054688 1882.050781 1325.78125 1882.519531 1325.53125 C 1882.988281 1325.28125 1883.46875 1325.054688 1883.960938 1324.847656 C 1884.453125 1324.644531 1884.953125 1324.46875 1885.460938 1324.3125 C 1885.972656 1324.160156 1886.484375 1324.03125 1887.007812 1323.925781 C 1887.53125 1323.820312 1888.054688 1323.742188 1888.585938 1323.691406 C 1889.113281 1323.640625 1889.644531 1323.613281 1890.175781 1323.613281 C 1890.707031 1323.613281 1891.238281 1323.640625 1891.765625 1323.691406 C 1892.296875 1323.742188 1892.820312 1323.820312 1893.34375 1323.925781 C 1893.867188 1324.03125 1894.378906 1324.160156 1894.890625 1324.3125 C 1895.398438 1324.46875 1895.898438 1324.644531 1896.390625 1324.847656 C 1896.882812 1325.054688 1897.363281 1325.28125 1897.832031 1325.53125 C 1898.300781 1325.78125 1898.753906 1326.054688 1899.199219 1326.347656 C 1899.640625 1326.644531 1900.066406 1326.960938 1900.476562 1327.296875 C 1900.886719 1327.636719 1901.28125 1327.992188 1901.65625 1328.367188 C 1902.035156 1328.742188 1902.390625 1329.136719 1902.726562 1329.546875 C 1903.066406 1329.960938 1903.382812 1330.386719 1903.675781 1330.828125 C 1903.972656 1331.269531 1904.246094 1331.726562 1904.496094 1332.195312 C 1904.746094 1332.664062 1904.976562 1333.140625 1905.179688 1333.632812 C 1905.382812 1334.125 1905.5625 1334.625 1905.714844 1335.132812 C 1905.871094 1335.640625 1906 1336.15625 1906.101562 1336.679688 C 1906.207031 1337.199219 1906.285156 1337.726562 1906.335938 1338.253906 C 1906.386719 1338.785156 1906.414062 1339.3125 1906.414062 1339.84375 Z M 1890.175781 1437.234375 C 1904.0625 1437.210938 1917.828125 1435.917969 1931.476562 1433.355469 C 1945.125 1430.789062 1958.421875 1426.996094 1971.367188 1421.976562 L 1971.367188 1446.808594 L 1890.175781 1527.964844 L 1808.984375 1446.808594 L 1808.984375 1421.976562 C 1821.929688 1426.996094 1835.226562 1430.789062 1848.875 1433.355469 C 1862.523438 1435.917969 1876.289062 1437.210938 1890.175781 1437.234375 Z M 1787.546875 1471.320312 L 1864.03125 1547.605469 L 1814.339844 1577.472656 L 1752.796875 1478.949219 Z M 1516.6875 1661.550781 C 1516.6875 1659.261719 1516.738281 1656.976562 1516.835938 1654.695312 C 1516.933594 1652.410156 1517.078125 1650.128906 1517.269531 1647.851562 C 1517.464844 1645.574219 1517.707031 1643.300781 1517.996094 1641.035156 C 1518.285156 1638.765625 1518.621094 1636.503906 1519.007812 1634.25 C 1519.390625 1632 1519.824219 1629.753906 1520.304688 1627.519531 C 1520.785156 1625.285156 1521.3125 1623.058594 1521.886719 1620.847656 C 1522.457031 1618.632812 1523.078125 1616.433594 1523.746094 1614.246094 C 1524.414062 1612.0625 1525.125 1609.890625 1525.882812 1607.730469 C 1526.644531 1605.574219 1527.445312 1603.4375 1528.296875 1601.3125 C 1529.144531 1599.191406 1530.039062 1597.085938 1530.976562 1595.003906 C 1531.914062 1592.917969 1532.898438 1590.851562 1533.921875 1588.808594 C 1534.949219 1586.765625 1536.015625 1584.746094 1537.125 1582.746094 C 1538.238281 1580.75 1539.390625 1578.773438 1540.582031 1576.824219 C 1541.777344 1574.875 1543.011719 1572.953125 1544.289062 1571.054688 C 1545.5625 1569.15625 1546.878906 1567.285156 1548.234375 1565.445312 C 1549.589844 1563.601562 1550.980469 1561.789062 1552.410156 1560.007812 C 1553.84375 1558.222656 1555.3125 1556.472656 1556.816406 1554.75 C 1558.320312 1553.03125 1559.863281 1551.339844 1561.441406 1549.683594 C 1563.015625 1548.027344 1564.628906 1546.40625 1566.273438 1544.820312 C 1567.917969 1543.230469 1569.59375 1541.679688 1571.304688 1540.160156 C 1573.015625 1538.644531 1574.757812 1537.164062 1576.53125 1535.71875 C 1578.304688 1534.277344 1580.109375 1532.871094 1581.941406 1531.503906 C 1583.773438 1530.136719 1585.636719 1528.808594 1587.523438 1527.519531 C 1589.414062 1526.230469 1591.328125 1524.980469 1593.269531 1523.773438 C 1595.210938 1522.566406 1597.179688 1521.398438 1599.167969 1520.273438 C 1601.160156 1519.148438 1603.175781 1518.066406 1605.210938 1517.027344 C 1607.25 1515.988281 1609.304688 1514.992188 1611.386719 1514.039062 C 1613.464844 1513.085938 1615.5625 1512.175781 1617.679688 1511.3125 C 1619.796875 1510.449219 1621.929688 1509.628906 1624.082031 1508.855469 C 1626.234375 1508.082031 1628.402344 1507.351562 1630.585938 1506.667969 C 1632.769531 1505.988281 1634.964844 1505.351562 1637.171875 1504.761719 C 1639.382812 1504.171875 1641.605469 1503.628906 1643.835938 1503.132812 L 1719.183594 1486.902344 L 1795.179688 1608.636719 C 1795.941406 1609.761719 1796.828125 1610.773438 1797.839844 1611.675781 C 1798.855469 1612.578125 1799.964844 1613.339844 1801.171875 1613.964844 C 1802.375 1614.585938 1803.640625 1615.054688 1804.964844 1615.359375 C 1806.285156 1615.667969 1807.625 1615.804688 1808.984375 1615.777344 C 1811.953125 1615.777344 1814.710938 1615.019531 1817.265625 1613.503906 L 1873.9375 1579.582031 L 1873.9375 1729.394531 L 1646.597656 1729.394531 L 1646.597656 1648.238281 L 1614.121094 1648.238281 L 1614.121094 1729.394531 L 1516.6875 1729.394531 Z M 2263.664062 1729.394531 L 2166.230469 1729.394531 L 2166.230469 1648.238281 L 2133.753906 1648.238281 L 2133.753906 1729.394531 L 1906.414062 1729.394531 L 1906.414062 1579.582031 L 1963.085938 1613.503906 C 1965.640625 1615.019531 1968.398438 1615.777344 1971.367188 1615.777344 C 1972.75 1615.78125 1974.105469 1615.609375 1975.441406 1615.265625 C 1976.777344 1614.921875 1978.050781 1614.417969 1979.257812 1613.75 C 1980.464844 1613.082031 1981.570312 1612.273438 1982.570312 1611.324219 C 1983.574219 1610.378906 1984.441406 1609.316406 1985.171875 1608.148438 L 2061.167969 1485.925781 L 2136.515625 1502.15625 C 2138.757812 1502.65625 2140.988281 1503.203125 2143.207031 1503.792969 C 2145.425781 1504.386719 2147.632812 1505.027344 2149.824219 1505.714844 C 2152.015625 1506.398438 2154.195312 1507.132812 2156.355469 1507.910156 C 2158.515625 1508.691406 2160.660156 1509.515625 2162.785156 1510.382812 C 2164.910156 1511.253906 2167.019531 1512.167969 2169.105469 1513.128906 C 2171.191406 1514.085938 2173.257812 1515.089844 2175.304688 1516.136719 C 2177.347656 1517.183594 2179.371094 1518.273438 2181.367188 1519.40625 C 2183.367188 1520.539062 2185.339844 1521.710938 2187.289062 1522.929688 C 2189.238281 1524.144531 2191.160156 1525.402344 2193.054688 1526.699219 C 2194.949219 1527.996094 2196.816406 1529.335938 2198.65625 1530.710938 C 2200.492188 1532.089844 2202.300781 1533.503906 2204.078125 1534.957031 C 2205.859375 1536.410156 2207.605469 1537.902344 2209.320312 1539.429688 C 2211.035156 1540.957031 2212.714844 1542.519531 2214.363281 1544.121094 C 2216.011719 1545.71875 2217.628906 1547.351562 2219.207031 1549.019531 C 2220.785156 1550.6875 2222.328125 1552.386719 2223.835938 1554.121094 C 2225.34375 1555.851562 2226.8125 1557.617188 2228.246094 1559.414062 C 2229.675781 1561.207031 2231.070312 1563.035156 2232.425781 1564.886719 C 2233.78125 1566.742188 2235.09375 1568.625 2236.371094 1570.535156 C 2237.644531 1572.445312 2238.878906 1574.382812 2240.070312 1576.34375 C 2241.261719 1578.308594 2242.414062 1580.292969 2243.523438 1582.304688 C 2244.628906 1584.316406 2245.695312 1586.351562 2246.71875 1588.40625 C 2247.738281 1590.464844 2248.714844 1592.539062 2249.648438 1594.640625 C 2250.582031 1596.738281 2251.472656 1598.855469 2252.316406 1600.988281 C 2253.160156 1603.125 2253.957031 1605.277344 2254.710938 1607.449219 C 2255.460938 1609.617188 2256.167969 1611.800781 2256.828125 1614 C 2257.488281 1616.199219 2258.101562 1618.414062 2258.664062 1620.640625 C 2259.230469 1622.863281 2259.75 1625.101562 2260.21875 1627.347656 C 2260.691406 1629.597656 2261.113281 1631.851562 2261.488281 1634.117188 C 2261.863281 1636.382812 2262.191406 1638.65625 2262.46875 1640.933594 C 2262.746094 1643.214844 2262.976562 1645.5 2263.15625 1647.789062 C 2263.339844 1650.078125 2263.472656 1652.367188 2263.554688 1654.664062 C 2263.640625 1656.957031 2263.675781 1659.253906 2263.664062 1661.550781 Z M 2263.664062 1729.394531 " fill-opacity="1" fill-rule="nonzero"/></g></svg>